<?xml version="1.0" standalone="yes"?>
<svg xmlns="http://www.w3.org/2000/svg" width="1000" height="1000">
<path style="fill:#474f3f; stroke:none;" d="M0 0L0 1000L1000 1000L1000 0L0 0z"/>
<path style="fill:#455233; stroke:none;" d="M230 414C231.029 416.807 231.229 421.023 233.528 423.107C238.528 427.639 254.094 427.199 260.961 429.525C276.66 434.842 288.779 447.515 297.614 460.961C301.282 466.542 305.167 470.966 305 478C312.582 487.25 311.127 514.786 304 524C303.669 532.981 296.294 542.086 290.463 548.282C273.708 566.086 255.544 575.002 231 575C220.784 574.999 203.818 572.392 198 563C191.428 563.691 187.374 558.843 183.12 554.439C173.622 544.608 168.2 535.853 162.576 523.424C160.708 519.297 156.503 508.725 159.912 504.603C162.264 501.76 170.542 502.148 174 502L169 494L156 479L147 483L131 498L145.396 504.603L146 520L149 519C151.697 533.518 158.368 543.988 165 557C171.559 557.815 178.959 570.337 185 573.917C201.865 583.911 222.585 588.503 242 587.694C302.351 585.18 344.009 507.442 310.667 456C301.65 442.089 289.215 428.691 274 421.611C266.933 418.323 252.892 417.281 248 412L230 414z"/>
<path style="fill:#aaaea2; stroke:none;" d="M234 416L237 415L234 416z"/>
<path style="fill:#93c449; stroke:none;" d="M157 501L170 500C168.489 494.615 159.242 482.636 153 482.636C146.758 482.636 137.511 494.616 136 500L148 501C151.233 526.581 158.531 548.773 179.09 565.986C241.119 617.923 337.153 557.344 317.24 479C310.798 453.655 292.651 432.559 269 421.771C260.817 418.038 251.932 415.933 243 415.054C239.703 414.729 234.296 414.123 234.296 418.936C234.296 423.974 241.7 422.923 245 423.439C256.884 425.296 268.142 429.82 278 436.721C309.322 458.648 319.48 499.936 303.114 534C268.749 605.526 157.009 579.993 157 501z"/>
<path style="fill:#aaaea2; stroke:none;" d="M246.667 415.333L247.333 415.667L246.667 415.333z"/>
<path style="fill:#455233; stroke:none;" d="M279 417L279 418L283 418L279 417M768 416L769 418L770 418L771 416L768 416M431 418L432 419L431 418M750 418L748 419L748 420L750 418M861 420L864 418L861 420z"/>
<path style="fill:#aaaea2; stroke:none;" d="M263 419L264 420L263 419z"/>
<path style="fill:#455233; stroke:none;" d="M437 419L438 420L437 419M576 419L576 421L583 420L576 419z"/>
<path style="fill:#aaaea2; stroke:none;" d="M234.667 422.333L235.333 422.667L234.667 422.333z"/>
<path style="fill:#455233; stroke:none;" d="M285 422L288 425L285 422M417 422L421 424L421 423L417 422M521 422L520 424L522 424L521 422M224 423L224 426L228 425L224 423M768 423L768 424L773 424L768 423M369 424L374 426L369 424M412 425L414 428L405 430C409.086 440.664 410.244 466.193 406 477L378 430C370.309 428.54 366.764 427.556 359 430C364.983 445.614 361 468.342 361 485C361 489.835 358.813 497.966 360.746 502.366C363.51 508.654 371.785 505.318 376 503L375 454C379.53 459.454 391.442 471.995 387 479L392 478C394.386 485.197 402.943 499.835 409.188 504.397C413.03 507.204 419.537 506.89 421.393 501.977C423.281 496.976 421 488.425 421 483C421 465.792 418.855 446.94 422 430L415 428L416 424L412 425M422.667 424.333L423.333 424.667L422.667 424.333M446.667 424.333L447.333 424.667L446.667 424.333M783 424L784 425L783 424M634 425L634 426L639 426L634 425M554 498L554 497C549.464 488.501 556.733 473.206 551.243 466.319C548.55 462.941 529.65 463.274 527.603 467.42C524.651 473.399 530.762 479.013 533 484L533 480L533 479C540.755 475.295 538.179 487.774 538 492C529.836 492.046 514.214 495.565 511 485L508 486C505.254 474.28 496.196 453.792 512 446C512 442.828 516.289 442.705 519 441.5C525.603 438.565 539.768 438.461 544 445C553.152 440.554 550.965 431.814 541.999 428.652C525.102 422.693 503.107 428.561 493.029 444.004C474.047 473.088 499.249 509.74 532 506.05C540.518 505.091 548.267 504.73 554 498M567 497C572.078 498.29 575.987 502.691 581 504.54C589.747 507.767 599.976 507.117 609 505.536C612.358 504.948 619.595 504.792 621.482 501.566C626.212 493.483 621.399 476.643 624 467C615.982 463.006 605.833 465 597 465C596.328 468.624 594.93 473.635 598.318 476.382C603.377 480.484 611.798 476.778 608.682 487.891C605.833 498.054 582.493 492.089 580 484L579 483C567.117 479.531 573.601 455.087 579.108 448.429C585.169 441.102 593.888 439.21 603 440.105C608.017 440.597 614.352 446.212 618.396 440.848C627.99 428.123 600.601 425.621 594 426.174C572.202 427.997 555.444 446.77 557.507 469C558.491 479.608 564.676 487.193 567 497M691 446C694.592 453.347 689.946 468.142 691.209 477C693.523 493.234 707.419 502.348 720 510C723.441 503.76 730.259 507.335 736.089 505.931C746.152 503.509 756.526 498.377 761.876 488.957C778.482 459.714 755.409 422.12 722 426.184C708.099 427.876 702.029 440.335 691 446M631 430C634.375 448.178 632 468.529 632 487C632 493.183 628.839 504.246 637.015 506.257C656.56 511.063 637.257 478.021 653.012 476.832C663.249 476.059 663.394 492.712 671 497C668.671 491.405 664.384 478.26 658.621 475.603C654.694 473.793 648.259 475 644 475L644 503L634 503L634 430C645.889 430 661.254 427.417 672 433.533C687.242 442.209 685.298 463.665 671 472L686 503C679.953 503 675.495 503.59 672 498L671 498C671.481 504.191 685.08 510.07 686.929 502.772C689.045 494.419 676.086 480.436 673 473C687.923 467.623 688.047 442.375 676.985 433.278C667.186 425.22 642.317 426.811 631 430M431 430C437.99 446.036 434.238 467.7 434.961 485C435.192 490.54 431.103 500.45 436.232 504.393C439.267 506.725 443.498 505.157 447 505.464C458.368 506.459 471.257 503.884 482 508L487 496L487 495L481 490C476.806 493.959 471.463 493 466 493C453.382 493 441.549 490.289 448.603 474.148C452.057 466.247 466.811 474.402 472.722 470.937C477.566 468.097 477.059 460.781 471.98 458.742C465.376 456.092 455.054 458 448 458L448 442C456.359 440.01 475.82 445.189 481.967 439.107C486.722 434.401 480.831 429.234 475.985 429.019C460.961 428.353 445.789 428.09 431 430M767 430L777.705 469L783 481L769 431C779.894 428.415 780.898 436.099 783.127 445C785.635 455.021 788.357 464.983 790.873 475C791.962 479.334 792.3 485.196 796 488L812 432L822.437 433.603L828.424 450L841 489C847.707 471.222 853.462 448.835 856 430L866 430L852.424 480L846.062 500.682L835 503C832.566 484.942 825.215 462.744 818 446C810.684 456.266 808.332 474.83 804.721 487C803.442 491.308 803.034 498.253 799.49 501.397C796.842 503.745 792.267 503 789 503L784 482L783 482C783.018 487.393 784.203 498.452 787.603 502.721C790.984 506.966 798.678 507.077 801.983 502.852C806.236 497.416 807.291 488.55 808.885 482C811.241 472.32 815.314 462.81 817 453C825.492 461.951 825.743 481.543 830.11 493.001C831.816 497.476 831.559 503.223 837.043 505.012C846.237 508.01 849.053 501.454 851.495 494C856.305 479.315 859.771 463.979 863.475 449C864.713 443.992 868.904 437.178 868.127 432.059C867.329 426.807 857.467 427.418 854.603 430.518C852.196 433.122 852.204 438.656 851.373 442C850.206 446.701 848.575 451.306 847.455 456C845.536 464.045 843.569 472.101 841 480L840 480L830.109 448L824.273 432.028L810 431C810 436.614 803.388 458.597 801 458L795 481L787.83 452L784 431C778.129 427.926 773.285 428.452 767 430M241 429L242 430L241 429z"/>
<path style="fill:#aaaea2; stroke:none;" d="M518 429L519 430L518 429z"/>
<path style="fill:#93c449; stroke:none;" d="M549 466C543.801 467.238 535.56 464.51 531.148 466.826C521.358 471.967 536.615 475.816 540 476C540 480.465 541.592 488.751 538.972 492.566C533.673 500.282 515.466 494.151 510.09 489.61C497.066 478.607 497.848 455.308 510.015 444.108C513.874 440.556 518.774 438.516 524 438.093C531.698 437.472 538.566 439.466 546 441C550.915 430.719 538.962 429.21 531 429.015C517.251 428.677 504.094 431.906 495.916 444C478.295 470.059 497.715 508.198 530 504.285C535.481 503.62 544.273 503.652 548.397 499.298C553.058 494.376 550.824 472.17 549 466M620 467C616.279 466.603 592.836 465.281 600.029 474.396C602.448 477.461 607.531 474.137 609.397 478.188C616.481 493.572 600.62 498.099 589 494.25C567.98 487.288 564.424 456.903 581.004 443.34C591.405 434.832 604.277 438.574 616 441C621.095 427.277 600.99 428.631 592 429.039C576.22 429.757 562.88 442.672 560.326 458C555.914 484.473 572.969 505.941 600 504.09C605.589 503.707 614.169 503.763 618.397 499.298C623.44 493.972 620 474.143 620 467M720 429.468C692.234 434.672 684.36 472.947 701.329 492.985C710.07 503.307 724.214 505.985 737 503.539C762.623 498.638 772.15 464.661 758.455 444.04C749.95 431.233 734.733 426.706 720 429.468z"/>
<path style="fill:#aaaea2; stroke:none;" d="M363 430L364 431L363 430z"/>
<path style="fill:#93c449; stroke:none;" d="M373 447L374 447C377.999 455.038 383.823 462.441 388.692 470C392.187 475.425 395.889 480.699 399.565 486C403.045 491.019 409.083 506.622 417.566 502.396C421.71 500.332 420 490.775 420 487L420 441C419.998 436.429 419.554 427.59 412.228 430.619C407.686 432.497 409 440.133 409 444C409 456.313 411.34 471.009 409 483C399.237 469.367 390.112 455.146 381.125 440.999C377.834 435.818 373.528 428.188 366.148 430.319C360.836 431.853 363 443.744 363 448C363 463.354 358.96 485.173 363.318 499.852C364.405 503.514 370.485 504.159 372.258 500.682C374.334 496.609 373 489.463 373 485L373 470L373 447z"/>
<path style="fill:#aaaea2; stroke:none;" d="M373 430L374 431L373 430M410 430L411 431L410 430M417.667 430.333L418.333 430.667L417.667 430.333M437 430L438 431L437 430z"/>
<path style="fill:#93c449; stroke:none;" d="M446 494L447 469C453.186 470.828 463.595 471.237 469.891 469.486C473.247 468.553 474.9 464.443 472.254 461.742C467.802 457.2 452.017 460 446 460L446 439L480 439L480 430L450 430C446.565 430 440.488 428.895 437.603 431.179C434.529 433.614 436 441.534 436 445L436 486C436 489.786 434.284 499.343 437.603 501.972C440.052 503.912 445.09 503 448 503C456.336 503 472.193 506.089 479.682 502.397C489.678 497.468 472.97 494 470 494L461 494L446 494z"/>
<path style="fill:#aaaea2; stroke:none;" d="M634 430L635 431L634 430z"/>
<path style="fill:#93c449; stroke:none;" d="M644 475C648.489 474.944 655.821 473.503 659.529 476.603C671.009 486.2 666.507 502.998 685 503L671 472C683.243 467.217 686.806 448.138 678.581 438.093C671.637 429.613 646.233 425.725 636.318 430.603C632.131 432.664 634 443.139 634 447L634 485C634 489.404 632.622 496.657 634.603 500.682C636.107 503.737 641.893 503.737 643.397 500.682C645.048 497.326 644 491.652 644 488L644 475z"/>
<path style="fill:#aaaea2; stroke:none;" d="M663 430L664 431L663 430M770 430L771 431L770 430z"/>
<path style="fill:#93c449; stroke:none;" d="M769 431C774.359 450.025 780.02 468.968 785.293 488C787.022 494.241 788.62 507.251 798.582 502.397C803.036 500.226 803.733 491.217 805.025 487C809.093 473.715 811.77 458.397 818 446C822.561 460.26 826.31 474.785 831.001 489C832.512 493.579 833.3 501.979 839.044 502.848C847.229 504.086 847.765 497.077 849.659 491C853.981 477.135 857.446 462.967 861.427 449C862.652 444.704 866.625 436.751 865.073 432.318C863.964 429.15 858.694 429.673 856.728 431.603C853.325 434.945 852.616 443.493 851.475 448L847.373 464C845.289 472.335 843.329 480.731 841 489L828.424 449L822.437 433.028L812 432L795 488L784.127 448L779.066 431.742L769 431z"/>
<path style="fill:#aaaea2; stroke:none;" d="M778 430L779 431L778 430M856 430L857 431L856 430M865.333 430.667L865.667 431.333L865.333 430.667z"/>
<path style="fill:#455233; stroke:none;" d="M257 431L258 432L257 431z"/>
<path style="fill:#aaaea2; stroke:none;" d="M409.333 431.667L409.667 432.333L409.333 431.667M419 431L420 432L419 431M480.333 431.667L480.667 432.333L480.333 431.667M667 431L668 432L667 431z"/>
<path style="fill:#455233; stroke:none;" d="M297.333 432.667L297.667 433.333L297.333 432.667M556 432L556 435L558 434L558 433L556 432M684 433L685 434L684 433M688.667 433.333L689.333 433.667L688.667 433.333M878 433L880 435L880 433L878 433z"/>
<path style="fill:#aaaea2; stroke:none;" d="M865 434L866 435L865 434M480 435L480 438L481 438L480 435M574 435L575 436L574 435z"/>
<path style="fill:#455233; stroke:none;" d="M848 435L848 441L849 441L848 435M303 437L302 440L303 437z"/>
<path style="fill:#aaaea2; stroke:none;" d="M864 437L865 438L864 437M280 438L281 439L280 438M293 438L294 439L293 438z"/>
<path style="fill:#455233; stroke:none;" d="M487 438L488 439L487 438M725 438.443C692.287 443.216 697.67 499.214 732 494.711C764.553 490.441 758.848 433.505 725 438.443z"/>
<path style="fill:#aaaea2; stroke:none;" d="M810 438L811 439L810 438z"/>
<path style="fill:#455233; stroke:none;" d="M644 439C644 444.887 641.303 459.694 645.028 464.397C647.01 466.9 652.212 466.03 655 465.996C660.513 465.929 666.939 464.914 670.258 459.945C675.664 451.851 670.131 440.777 661 439.305C655.497 438.417 649.562 439 644 439z"/>
<path style="fill:#aaaea2; stroke:none;" d="M546 440L547 441L546 440M568 440L569 441L568 440M616.333 440.667L616.667 441.333L616.333 440.667z"/>
<path style="fill:#474f3f; stroke:none;" d="M714 447C706.258 449.845 704.716 461.71 705.019 469C705.917 490.607 732.285 501.464 746.54 484.035C750.041 479.754 750.871 476.401 751.015 471C751.149 465.942 752.635 461.214 750.251 456.424C745.014 445.907 736.783 437.87 724 440.681C719.911 441.58 714.879 442.602 714 447z"/>
<path style="fill:#aaaea2; stroke:none;" d="M853 440L854 441L853 440z"/>
<path style="fill:#474f3f; stroke:none;" d="M647 464C659.442 463.112 670.954 464.107 671 448C668.619 446.576 667.312 443.701 664.776 442.603C647.653 435.184 642.937 450.256 647 464z"/>
<path style="fill:#455233; stroke:none;" d="M598 445L598 446L602 444L598 445M603 444L604 445L603 444M605 444L606 445L605 444M545 446L546 447L545 446M736 446L739 448L736 446M768 446L769 447L768 446z"/>
<path style="fill:#aaaea2; stroke:none;" d="M384 447L385 448L384 447z"/>
<path style="fill:#455233; stroke:none;" d="M619.667 447.333L620.333 447.667L619.667 447.333M623 447L624 448L623 447M252 448L252 449L255 450L252 448z"/>
<path style="fill:#aaaea2; stroke:none;" d="M302 448L303 449L302 448z"/>
<path style="fill:#455233; stroke:none;" d="M403 448L403 464L404 464L403 448M481 449L479 457L480 457L481 449z"/>
<path style="fill:#aaaea2; stroke:none;" d="M707 449L708 450L707 449M749 449L750 450L749 449z"/>
<path style="fill:#455233; stroke:none;" d="M464.667 451.333L465.333 451.667L464.667 451.333z"/>
<path style="fill:#aaaea2; stroke:none;" d="M377 452L378 453L377 452z"/>
<path style="fill:#455233; stroke:none;" d="M471.667 452.333L472.333 452.667L471.667 452.333M744 452L743 455L744 455L744 452z"/>
<path style="fill:#aaaea2; stroke:none;" d="M850 452L851 453L850 452M491 453L492 454L491 453M561 453L562 454L561 453M379 455L380 456L379 455M682 455L683 456L682 455M814 455L815 456L814 455z"/>
<path style="fill:#455233; stroke:none;" d="M239 465C231.966 474.525 228.755 483.174 228 495L225 491L202 485.781L193 489L192 493L195 491C198.06 498.947 198.632 509.793 203.89 516.671C213.744 529.564 231.014 523.939 226 545C229.366 546.949 236.259 551.165 238.817 545.761C244.447 533.866 234.271 515.298 239.603 503.224C242.693 496.227 255.238 497.197 260.408 491.625C265.087 486.582 277.339 461.464 266.891 457.643C257.82 454.325 247.166 463.236 239 465z"/>
<path style="fill:#aaaea2; stroke:none;" d="M671 458L672 459L671 458z"/>
<path style="fill:#93c449; stroke:none;" d="M233 504C226.345 495.289 196.085 477.425 200.084 500C200.508 502.393 201.036 504.732 201.927 507C204.698 514.053 209.237 519.292 216 522.727C219.649 524.58 225.573 525.221 228.258 528.43C231.56 532.377 227.292 543.172 232.313 545.199C239.692 548.178 238 533.464 238 530C238 522.605 234.831 505.628 239.028 499.43C241.456 495.844 248.326 495.766 252 493.862C259.473 489.988 274.318 470.861 266.972 461.603C263.361 457.052 249.953 462.552 246.004 464.634C230.512 472.801 228.756 489.12 233 504z"/>
<path style="fill:#aaaea2; stroke:none;" d="M267 460L268 461L267 460M471.667 460.333L472.333 460.667L471.667 460.333z"/>
<path style="fill:#455233; stroke:none;" d="M713.333 460.667L713.667 461.333L713.333 460.667z"/>
<path style="fill:#aaaea2; stroke:none;" d="M473.333 461.667L473.667 462.333L473.333 461.667M753 461L753 464L754 464L753 461M787 461L788 462L787 461M803 461L804 462L803 461M248 463L249 464L248 463z"/>
<path style="fill:#455233; stroke:none;" d="M711 463L712 464L711 463z"/>
<path style="fill:#aaaea2; stroke:none;" d="M832 463L833 464L832 463M802 464L803 465L802 464M303 465L304 466L303 465z"/>
<path style="fill:#455233; stroke:none;" d="M316 465L316 467L318 467L318 465L316 465z"/>
<path style="fill:#aaaea2; stroke:none;" d="M397 466L398 467L397 466z"/>
<path style="fill:#455233; stroke:none;" d="M795 466L795 470L796 470L795 466z"/>
<path style="fill:#aaaea2; stroke:none;" d="M473 467L474 468L473 467M599 467L600 468L599 467M409 469L410 470L409 469M753 469L754 470L753 469M238 470L239 471L238 470M305 470L306 471L305 470z"/>
<path style="fill:#455233; stroke:none;" d="M478 471L478 474L479 474L480 471L478 471M772 471L772 474L773 474L772 471M484 473L483 481C485.378 478.385 485.494 476.215 484 473z"/>
<path style="fill:#aaaea2; stroke:none;" d="M790 473L791 474L790 473M826 473L827 474L826 473M650 474L651 475L650 474M403 475L404 476L403 475M536 475L537 476L536 475M599 475L600 476L599 475M606.667 475.333L607.333 475.667L606.667 475.333M660 476L661 477L660 476M409 477L409 480L410 480L409 477M704 477L705 478L704 477z"/>
<path style="fill:#455233; stroke:none;" d="M812.333 477.667L812.667 478.333L812.333 477.667z"/>
<path style="fill:#aaaea2; stroke:none;" d="M405 478L406 479L405 478z"/>
<path style="fill:#455233; stroke:none;" d="M507.333 478.667L507.667 479.333L507.333 478.667M556 478L556 481L558 481L558 478L556 478M767 480L766 483L767 480z"/>
<path style="fill:#aaaea2; stroke:none;" d="M783.333 480.667L783.667 481.333L783.333 480.667z"/>
<path style="fill:#455233; stroke:none;" d="M863.333 480.667L863.667 481.333L863.333 480.667M137 481L140 483L137 481z"/>
<path style="fill:#aaaea2; stroke:none;" d="M152.667 481.333L153.333 481.667L152.667 481.333z"/>
<path style="fill:#455233; stroke:none;" d="M656 481L657 482L656 481z"/>
<path style="fill:#aaaea2; stroke:none;" d="M263 482L264 483L263 482M309.333 482.667L309.667 483.333L309.333 482.667M574 483L575 484L574 483z"/>
<path style="fill:#474f3f; stroke:none;" d="M578 484L579 485L578 484z"/>
<path style="fill:#aaaea2; stroke:none;" d="M796 484L797 485L796 484M261 485L262 486L261 485M696 485L697 486L696 485M576 486L577 487L576 486z"/>
<path style="fill:#455233; stroke:none;" d="M858 486L859 493L858 486z"/>
<path style="fill:#aaaea2; stroke:none;" d="M318 487L319 488L318 487z"/>
<path style="fill:#455233; stroke:none;" d="M525.667 487.333L526.333 487.667L525.667 487.333M586 487L587 488L586 487z"/>
<path style="fill:#aaaea2; stroke:none;" d="M697 487L698 488L697 487M759 487L760 488L759 487z"/>
<path style="fill:#455233; stroke:none;" d="M129 488L129 493L130 493C131.34 490.367 131.556 489.602 129 488z"/>
<path style="fill:#aaaea2; stroke:none;" d="M199.333 488.667L199.667 489.333L199.333 488.667z"/>
<path style="fill:#455233; stroke:none;" d="M814.333 488.667L814.667 489.333L814.333 488.667M660 489L660 493L661 493L660 489M766 491L768 495L768 491L766 491M819 491C819.064 493.993 818.946 495.346 822 496L819 491z"/>
<path style="fill:#aaaea2; stroke:none;" d="M537 494L538 495L537 494M608 494L609 495L608 494z"/>
<path style="fill:#455233; stroke:none;" d="M688 494L688 496L690 496L690 494L688 494z"/>
<path style="fill:#aaaea2; stroke:none;" d="M481 495L482 496L481 495M525 495L526 496L525 495M530.667 495.333L531.333 495.667L530.667 495.333M593 495L593 496L596 496L593 495M600 495L601 496L600 495M244 496L245 497L244 496M671.333 496.667L671.667 497.333L671.333 496.667M240 497L241 498L240 497z"/>
<path style="fill:#455233; stroke:none;" d="M428 497L429 498L428 497z"/>
<path style="fill:#aaaea2; stroke:none;" d="M503 497L504 498L503 497M573 497L574 498L573 497z"/>
<path style="fill:#455233; stroke:none;" d="M814 497L816 499L816 497L814 497z"/>
<path style="fill:#aaaea2; stroke:none;" d="M135 498C135 500.827 136.142 500.791 139 501L139 500L135 498M170 498L169 501C171.158 500.022 171.501 499.812 170 498z"/>
<path style="fill:#455233; stroke:none;" d="M403 498L404 499L403 498z"/>
<path style="fill:#aaaea2; stroke:none;" d="M801 498L802 499L801 498z"/>
<path style="fill:#455233; stroke:none;" d="M129 499L128 501L130 501L129 499M627 499L628 502L627 499z"/>
<path style="fill:#aaaea2; stroke:none;" d="M372.333 501.667L372.667 502.333L372.333 501.667M419.333 501.667L419.667 502.333L419.333 501.667M614 501L615 502L614 501M685.333 501.667L685.667 502.333L685.333 501.667M800 501L801 502L800 501M363 502L364 503L363 502M436 502L437 503L436 502M481 502L482 503L481 502z"/>
<path style="fill:#455233; stroke:none;" d="M563 503L563 504L567 505L566 502L563 503z"/>
<path style="fill:#aaaea2; stroke:none;" d="M611 502L612 503L611 502M634 502L635 503L634 502M643 502L644 503L643 502M674 502L675 503L674 502M715 502L716 503L715 502M741 502L742 503L741 502M789 502L790 503L789 502M835 502L836 503L835 502M845 502L846 503L845 502M737 503L738 504L737 503M148 504L149 505L148 504z"/>
<path style="fill:#455233; stroke:none;" d="M233 504L235 510L236 510L233 504M501 504L501 506L503 504L501 504z"/>
<path style="fill:#aaaea2; stroke:none;" d="M596 504L596 505L600 505L596 504M726 504L727 505L726 504M728 504L729 505L728 504M730 504L731 505L730 504z"/>
<path style="fill:#455233; stroke:none;" d="M613 507L613 508L617 509L617 508L613 507M492 508L491 511L492 508M589 508L590 509L589 508M630 509L631 510L630 509M735 512L739 511C736.921 509.357 736.419 509.816 735 512M423.667 510.333L424.333 510.667L423.667 510.333M505 510L505 512L510 511L505 510M580 511L580 512L585 512L580 511M646 510L646 512L648 510L646 510M673 510L673 512L678 512L678 510L673 510M841 510L840 512L842 512L841 510z"/>
<path style="fill:#aaaea2; stroke:none;" d="M318 512L319 513L318 512M149.333 513.667L149.667 514.333L149.333 513.667z"/>
<path style="fill:#455233; stroke:none;" d="M305 513L306 514L305 513M307 513L308 514L307 513z"/>
<path style="fill:#aaaea2; stroke:none;" d="M309 516L310 517L309 516M210 519L211 520L210 519M317 519L318 520L317 519M215 522L216 523L215 522M316 522L317 523L316 522M217 523L218 524L217 523M160 525L161 526L160 525z"/>
<path style="fill:#455233; stroke:none;" d="M210.667 527.333L211.333 527.667L210.667 527.333z"/>
<path style="fill:#aaaea2; stroke:none;" d="M306 527L307 528L306 527z"/>
<path style="fill:#455233; stroke:none;" d="M291 528L294 531L291 528z"/>
<path style="fill:#aaaea2; stroke:none;" d="M229 529L229 545L230 545L229 529z"/>
<path style="fill:#455233; stroke:none;" d="M171 532L171 535L173 532L171 532M295 534L293 539L295 534M434 540L435 540L436 538L434 540M523 540L524 540L525 538L523 540M636 537L637 538L636 537M640 537L642 539L640 537M724 537L722 538L722 539L724 537M728 537L730 539L728 537M784 537L785 538L784 537M796 537L797 538L796 537M800 537L799 541L800 537M851.667 537.333L852.333 537.667L851.667 537.333M864 537L865 542L866 542L864 537z"/>
<path style="fill:#eff1e8; stroke:none;" d="M363 541L369 539C366.238 537.409 363.714 537.669 363 541z"/>
<path style="fill:#aaaea2; stroke:none;" d="M366 539L366 540L371 538L366 539z"/>
<path style="fill:#eff1e8; stroke:none;" d="M371 538L370 558L374 558C371.964 549.447 370.733 538.708 382 540L371 538z"/>
<path style="fill:#aaaea2; stroke:none;" d="M381 538L382 539L381 538z"/>
<path style="fill:#455233; stroke:none;" d="M396 538L397 539L396 538z"/>
<path style="fill:#aaaea2; stroke:none;" d="M397 538L397 539L401 539L401 538L397 538z"/>
<path style="fill:#eff1e8; stroke:none;" d="M398.667 538.333L399.333 538.667L398.667 538.333M401 538L399 558L403 558L401 538z"/>
<path style="fill:#aaaea2; stroke:none;" d="M402 538L402 541L404 538L402 538z"/>
<path style="fill:#455233; stroke:none;" d="M410 538L412 540L410 538z"/>
<path style="fill:#aaaea2; stroke:none;" d="M411 538L411 539L418 539L411 538M434 538L436 556L437 556C437 550.03 438.545 542.451 434 538z"/>
<path style="fill:#eff1e8; stroke:none;" d="M435 538C437.746 544.482 437.746 551.518 435 558C439.745 558 446.147 559.4 449 555C436.256 560.39 437.884 546.615 440 538L435 538z"/>
<path style="fill:#aaaea2; stroke:none;" d="M439 539L439 540L448 542C445.252 538.887 443.058 538.021 439 539z"/>
<path style="fill:#eff1e8; stroke:none;" d="M444 538L444 539L448 541L444 538z"/>
<path style="fill:#455233; stroke:none;" d="M448 538L449 539L448 538z"/>
<path style="fill:#aaaea2; stroke:none;" d="M486 547L487 547L495 539C489.637 538.495 487.01 542.007 486 547z"/>
<path style="fill:#eff1e8; stroke:none;" d="M494 538L494 539L505 543C503.329 538.198 498.553 538.097 494 538z"/>
<path style="fill:#aaaea2; stroke:none;" d="M500.667 538.333L501.333 538.667L500.667 538.333z"/>
<path style="fill:#455233; stroke:none;" d="M502 538L503 539L502 538z"/>
<path style="fill:#aaaea2; stroke:none;" d="M523 538L525 556L526 556C526 550.579 527.896 541.459 523 538z"/>
<path style="fill:#eff1e8; stroke:none;" d="M525 538L525 558L529 558L528 549L541 558L541 557C536.384 552.9 534.726 548.223 528 548L528 539C532.816 539.983 534.629 542.121 535 547C540.248 539.179 530.735 538.016 525 538z"/>
<path style="fill:#aaaea2; stroke:none;" d="M533.667 538.333L534.333 538.667L533.667 538.333z"/>
<path style="fill:#455233; stroke:none;" d="M556 538L557 539L556 538z"/>
<path style="fill:#aaaea2; stroke:none;" d="M557 538L558 539L557 538z"/>
<path style="fill:#eff1e8; stroke:none;" d="M558 538L558 539C561.6 543.752 560.323 552.442 559 558L572 556L562 557L563 538L558 538z"/>
<path style="fill:#aaaea2; stroke:none;" d="M563 538L563 540L570 539L563 538z"/>
<path style="fill:#eff1e8; stroke:none;" d="M567 538L568 539L567 538M569 539L572 541L571 538L569 539z"/>
<path style="fill:#aaaea2; stroke:none;" d="M588 538L588 539L592 559C591.658 552.471 594.624 541.653 588 538z"/>
<path style="fill:#eff1e8; stroke:none;" d="M590 538C592.744 544.475 592.263 551.196 591 558L604 557L604 556L593 557L594 538L590 538z"/>
<path style="fill:#aaaea2; stroke:none;" d="M594 538L594 540L600 540L594 538z"/>
<path style="fill:#eff1e8; stroke:none;" d="M599 538L599 539L603 541L599 538z"/>
<path style="fill:#455233; stroke:none;" d="M603 538L604 539L603 538z"/>
<path style="fill:#aaaea2; stroke:none;" d="M620 538L623 541L623 538L620 538z"/>
<path style="fill:#eff1e8; stroke:none;" d="M623 538C622.765 544.664 633.401 554.783 639 558L639 538L638 538L638 554L623 538z"/>
<path style="fill:#455233; stroke:none;" d="M624 538L625 539L624 538z"/>
<path style="fill:#aaaea2; stroke:none;" d="M634 538L634 539L638 539L634 538M639 538L641 540L641 538L639 538z"/>
<path style="fill:#455233; stroke:none;" d="M676 538L677 539L676 538z"/>
<path style="fill:#aaaea2; stroke:none;" d="M677 538L680 540L680 539L677 538z"/>
<path style="fill:#eff1e8; stroke:none;" d="M678 538L678 539C681.6 543.752 680.323 552.442 679 558L683 558L683 538L678 538z"/>
<path style="fill:#aaaea2; stroke:none;" d="M683 538L689 540L683 538z"/>
<path style="fill:#eff1e8; stroke:none;" d="M686 538L686 539L692 540L686 538z"/>
<path style="fill:#aaaea2; stroke:none;" d="M691 538L692 539L691 538z"/>
<path style="fill:#455233; stroke:none;" d="M692 538L693 539L692 538z"/>
<path style="fill:#aaaea2; stroke:none;" d="M707 538L710 541L707 538z"/>
<path style="fill:#eff1e8; stroke:none;" d="M710 538C710 547.978 708.172 558.404 721 559L721 558C710.217 556.796 711.455 546.322 713 538L710 538z"/>
<path style="fill:#aaaea2; stroke:none;" d="M711 538L712 539L711 538M713.333 538.667L713.667 539.333L713.333 538.667z"/>
<path style="fill:#455233; stroke:none;" d="M714 538L715 539L714 538z"/>
<path style="fill:#aaaea2; stroke:none;" d="M724 538L724 540L726 540L726 538L724 538z"/>
<path style="fill:#eff1e8; stroke:none;" d="M726 538L726 553L727 553L726 538z"/>
<path style="fill:#aaaea2; stroke:none;" d="M727 538L729 540L729 538L727 538M744 538L746 542L744 538z"/>
<path style="fill:#eff1e8; stroke:none;" d="M745 540C755.823 538.336 753.36 550.676 752 558L756 558L756 539L763 540C760.029 536.601 747.971 536.601 745 540z"/>
<path style="fill:#aaaea2; stroke:none;" d="M763 538L762 542L763 538M778 538L778 539C782.058 542.974 781 548.655 781 554L782 554C782 548.807 783.914 540.08 778 538z"/>
<path style="fill:#eff1e8; stroke:none;" d="M781 538C782.738 547.364 779.382 558.412 792 559L792 558C779.213 555.411 788.852 543.09 781 538z"/>
<path style="fill:#aaaea2; stroke:none;" d="M783 538L784 540L785 540L786 538L783 538z"/>
<path style="fill:#455233; stroke:none;" d="M794 538L796 540L794 538z"/>
<path style="fill:#aaaea2; stroke:none;" d="M795 538L796 557L788 557L788 558L798 557L797 554L798 538L795 538z"/>
<path style="fill:#eff1e8; stroke:none;" d="M798 538L798 552L799 552L798 538z"/>
<path style="fill:#aaaea2; stroke:none;" d="M799.333 538.667L799.667 539.333L799.333 538.667M816 538L818 542L819 542L816 538z"/>
<path style="fill:#eff1e8; stroke:none;" d="M817 538L817 539C820.6 543.752 819.323 552.442 818 558L822 558L821 549L834 558C830.519 552.733 827.681 548.221 821 548L821 539C825.816 539.983 827.629 542.121 828 547C834.264 538.685 822.574 538.001 817 538z"/>
<path style="fill:#aaaea2; stroke:none;" d="M827 538L828 539L827 538M850 538L850 539C854.058 542.974 853 548.655 853 554L854 554C854 548.807 855.914 540.08 850 538z"/>
<path style="fill:#eff1e8; stroke:none;" d="M853 538L853 558L866 557L866 556C860.69 556.982 851.279 555.684 858 549L856 538L853 538z"/>
<path style="fill:#aaaea2; stroke:none;" d="M856 538L856 540L862 540L856 538z"/>
<path style="fill:#eff1e8; stroke:none;" d="M861 538L861 539L864 542L865 542L865 538L861 538z"/>
<path style="fill:#455233; stroke:none;" d="M362 539L365 542L365 541L362 539z"/>
<path style="fill:#aaaea2; stroke:none;" d="M374 539L374 540L379 540L374 539z"/>
<path style="fill:#eff1e8; stroke:none;" d="M413 539L413 558L416 558L416 539L413 539z"/>
<path style="fill:#455233; stroke:none;" d="M417 539L418 540L417 539z"/>
<path style="fill:#aaaea2; stroke:none;" d="M448 539L449 540L448 539z"/>
<path style="fill:#eff1e8; stroke:none;" d="M492 539L493 540L492 539z"/>
<path style="fill:#455233; stroke:none;" d="M495 539L496 540L495 539M497 539L498 540L497 539z"/>
<path style="fill:#aaaea2; stroke:none;" d="M498.667 539.333L499.333 539.667L498.667 539.333M503 539L503 540L504 544C506.261 541.953 505.36 540.514 503 539z"/>
<path style="fill:#455233; stroke:none;" d="M505 539L506 540L505 539z"/>
<path style="fill:#aaaea2; stroke:none;" d="M528 539L528 540L532 540L528 539z"/>
<path style="fill:#455233; stroke:none;" d="M536 539L537 540L536 539M558 539L559 540L558 539z"/>
<path style="fill:#aaaea2; stroke:none;" d="M559 539L560 540L559 539z"/>
<path style="fill:#455233; stroke:none;" d="M589 539L590 540L589 539z"/>
<path style="fill:#aaaea2; stroke:none;" d="M603 539L602 543L603 543L603 539M624 539L627 542L624 539z"/>
<path style="fill:#455233; stroke:none;" d="M707 539L708 540L707 539z"/>
<path style="fill:#aaaea2; stroke:none;" d="M747 539L747 540L752 540L747 539M756 539L757 540L756 539M758 539L758 540L761 540L758 539z"/>
<path style="fill:#455233; stroke:none;" d="M779 539L780 540L779 539M785 539L786 540L785 539z"/>
<path style="fill:#aaaea2; stroke:none;" d="M821 541L825 540L821 541z"/>
<path style="fill:#455233; stroke:none;" d="M829 539L830 540L829 539M851 539L852 540L851 539z"/>
<path style="fill:#aaaea2; stroke:none;" d="M364 540L365 541L364 540M373 540L373 557L374 557L373 540M380 540L382 542L382 540L380 540z"/>
<path style="fill:#455233; stroke:none;" d="M399 540L400 541L399 540M448 540L449 541L448 540z"/>
<path style="fill:#eff1e8; stroke:none;" d="M495 558L495 557C487.603 552.78 488.302 546.6 492 540C483.235 544.585 485.175 556.675 495 558z"/>
<path style="fill:#455233; stroke:none;" d="M500 540L501 541L500 540z"/>
<path style="fill:#aaaea2; stroke:none;" d="M501 540L502 541L501 540z"/>
<path style="fill:#474f3f; stroke:none;" d="M528 540L528 547C534.938 546.459 534.773 540.78 528 540z"/>
<path style="fill:#455233; stroke:none;" d="M532 540L533 541L532 540z"/>
<path style="fill:#aaaea2; stroke:none;" d="M533 540L534 541L533 540M536 540L537 541L536 540M562 540L562 547L563 547L562 540M570 540L572 542L570 540M601 540L602 541L601 540z"/>
<path style="fill:#455233; stroke:none;" d="M626 540L627 541L626 540z"/>
<path style="fill:#aaaea2; stroke:none;" d="M637.333 540.667L637.667 541.333L637.333 540.667M639 540L639 545L640 545L639 540z"/>
<path style="fill:#455233; stroke:none;" d="M679 540L680 541L679 540z"/>
<path style="fill:#aaaea2; stroke:none;" d="M682 540L682 544L683 544L682 540z"/>
<path style="fill:#455233; stroke:none;" d="M689 540L690 541L689 540z"/>
<path style="fill:#aaaea2; stroke:none;" d="M690 540L690 542L692 542L692 540L690 540M712 540L712 543L713 543L712 540z"/>
<path style="fill:#455233; stroke:none;" d="M725 540L726 541L725 540z"/>
<path style="fill:#aaaea2; stroke:none;" d="M727 540L727 550L728 550L727 540z"/>
<path style="fill:#455233; stroke:none;" d="M746 540L747 541L746 540z"/>
<path style="fill:#aaaea2; stroke:none;" d="M752.333 540.667L752.667 541.333L752.333 540.667z"/>
<path style="fill:#455233; stroke:none;" d="M755.333 540.667L755.667 541.333L755.333 540.667M761 540L762 541L761 540z"/>
<path style="fill:#474f3f; stroke:none;" d="M822 547C832.685 546.148 821.114 534.778 822 547z"/>
<path style="fill:#aaaea2; stroke:none;" d="M826 540L827 541L826 540z"/>
<path style="fill:#455233; stroke:none;" d="M830 540L831 541L830 540M862.667 540.333L863.333 540.667L862.667 540.333M174 541L176 543L176 541L174 541z"/>
<path style="fill:#aaaea2; stroke:none;" d="M363 541L364 542L363 541z"/>
<path style="fill:#455233; stroke:none;" d="M380 541L381 542L380 541M408 541L409 542L408 541z"/>
<path style="fill:#aaaea2; stroke:none;" d="M413 541L413 547L414 547L413 541M415 541L415 556L416 556L415 541z"/>
<path style="fill:#455233; stroke:none;" d="M446 541L447 542L446 541M491 541L492 542L491 541z"/>
<path style="fill:#aaaea2; stroke:none;" d="M502 541L503 542L502 541M534.333 541.667L534.667 542.333L534.333 541.667M537 541L537 544L538 544L537 541z"/>
<path style="fill:#455233; stroke:none;" d="M570 541L571 542L570 541M603 541L604 542L603 541M622 541L623 542L622 541M709 541L709 553L710 553L709 541M821 541L822 542L821 541z"/>
<path style="fill:#aaaea2; stroke:none;" d="M827 541L828 542L827 541M830 541L830 545L831 545L830 541M298 542L299 543L298 542z"/>
<path style="fill:#455233; stroke:none;" d="M316 542L317 543L316 542M447 542L448 543L447 542z"/>
<path style="fill:#aaaea2; stroke:none;" d="M490 542L491 543L490 542z"/>
<path style="fill:#455233; stroke:none;" d="M503 542L504 543L503 542M571 542L572 543L571 542z"/>
<path style="fill:#aaaea2; stroke:none;" d="M627 542L628 543L627 542z"/>
<path style="fill:#455233; stroke:none;" d="M637 542L638 543L637 542M752 542L753 543L752 542M818 542L818 549L819 549L818 542z"/>
<path style="fill:#aaaea2; stroke:none;" d="M864 542L865 543L864 542z"/>
<path style="fill:#455233; stroke:none;" d="M486 543L487 544L486 543z"/>
<path style="fill:#aaaea2; stroke:none;" d="M489 543L490 544L489 543z"/>
<path style="fill:#455233; stroke:none;" d="M534.333 543.667L534.667 544.333L534.333 543.667z"/>
<path style="fill:#aaaea2; stroke:none;" d="M623 543L625 558L622 558L623 555L622 555L621 559L627 559L623 543z"/>
<path style="fill:#455233; stroke:none;" d="M628 543L629 544L628 543M712 543L713 544L712 543z"/>
<path style="fill:#aaaea2; stroke:none;" d="M752 543L753 544L752 543z"/>
<path style="fill:#455233; stroke:none;" d="M821 543L821 547L822 547L821 543z"/>
<path style="fill:#aaaea2; stroke:none;" d="M855.333 543.667L855.667 544.333L855.333 543.667M237 544L238 545L237 544z"/>
<path style="fill:#455233; stroke:none;" d="M505 544L506 545L505 544M537 544L538 545L537 544z"/>
<path style="fill:#aaaea2; stroke:none;" d="M593 544L594 545L593 544z"/>
<path style="fill:#455233; stroke:none;" d="M625 544L626 545L625 544M629 544L631 546L629 544M682 544L683 545L682 544z"/>
<path style="fill:#aaaea2; stroke:none;" d="M712 544L712 554L713 554L712 544z"/>
<path style="fill:#455233; stroke:none;" d="M752 544L752 552L753 552L752 544z"/>
<path style="fill:#aaaea2; stroke:none;" d="M161 545L162 546L161 545M231 545L232 546L231 545M236 545L237 546L236 545M306 545L307 546L306 545M438 545L439 546L438 545M446 545L447 548L446 545M534 545L531 547L531 548L536 548L534 545M536 545L537 546L536 545z"/>
<path style="fill:#455233; stroke:none;" d="M569.667 545.333L570.333 545.667L569.667 545.333z"/>
<path style="fill:#aaaea2; stroke:none;" d="M601 545L601 551L602 551L601 545M626 545L627 546L626 545M629 545L630 546L629 545z"/>
<path style="fill:#455233; stroke:none;" d="M639 545L639 553L640 553L639 545z"/>
<path style="fill:#aaaea2; stroke:none;" d="M682 545L683 546L682 545M689.333 545.667L689.667 546.333L689.333 545.667z"/>
<path style="fill:#455233; stroke:none;" d="M690.333 545.667L690.667 546.333L690.333 545.667M827 545L828 546L827 545M830 545L831 546L830 545z"/>
<path style="fill:#aaaea2; stroke:none;" d="M863 545L861 550L864 551L863 545z"/>
<path style="fill:#455233; stroke:none;" d="M536 546L537 547L536 546z"/>
<path style="fill:#aaaea2; stroke:none;" d="M569 546C569.983 548.95 570.487 549.622 568 549L568 550L570 551L569 546M593 546L594 547L593 546M627 546L628 547L627 546M630 546L631 547L630 546z"/>
<path style="fill:#455233; stroke:none;" d="M682 546L683 547L682 546M688 546L689 547L688 546z"/>
<path style="fill:#aaaea2; stroke:none;" d="M821 547L821 548L828 550L829 547L828 546L821 547M829 546L830 547L829 546M402 547L402 549L413 549L413 547L402 547M439 549L444 548L439 549z"/>
<path style="fill:#eff1e8; stroke:none;" d="M441 548L441 549L447 549L441 548z"/>
<path style="fill:#aaaea2; stroke:none;" d="M488 547L489 548L488 547z"/>
<path style="fill:#455233; stroke:none;" d="M501 547L502 548L501 547z"/>
<path style="fill:#aaaea2; stroke:none;" d="M528 547L529 548L528 547z"/>
<path style="fill:#455233; stroke:none;" d="M529.667 547.333L530.333 547.667L529.667 547.333z"/>
<path style="fill:#aaaea2; stroke:none;" d="M563 549L568 548L563 549z"/>
<path style="fill:#eff1e8; stroke:none;" d="M567 548L570 550L569 547L567 548z"/>
<path style="fill:#aaaea2; stroke:none;" d="M594 549L599 548L594 549z"/>
<path style="fill:#eff1e8; stroke:none;" d="M598 548L601 550L600 547L598 548M623 547L622 558L625 558L625 557L623 547z"/>
<path style="fill:#aaaea2; stroke:none;" d="M628 547L629 548L628 547M631 547L632 548L631 547M682 550L686 549C684.428 546.258 682.609 547.159 682 550z"/>
<path style="fill:#eff1e8; stroke:none;" d="M686 547L690 550L686 547z"/>
<path style="fill:#aaaea2; stroke:none;" d="M856 547L856 548L861 548L856 547z"/>
<path style="fill:#eff1e8; stroke:none;" d="M859 548L859 549L863 547L859 548z"/>
<path style="fill:#aaaea2; stroke:none;" d="M500 548L500 549L503 550L500 548z"/>
<path style="fill:#eff1e8; stroke:none;" d="M502 548C502.882 551.893 502.908 554.142 500 557L500 558C504.953 556.179 504.868 552.684 506 548L502 548z"/>
<path style="fill:#aaaea2; stroke:none;" d="M506 548L504 557L505 557L506 548z"/>
<path style="fill:#455233; stroke:none;" d="M507 548L508 549L507 548M534 548L535 549L534 548z"/>
<path style="fill:#eff1e8; stroke:none;" d="M565 548L566 549L565 548M596 548L597 549L596 548z"/>
<path style="fill:#aaaea2; stroke:none;" d="M629 548L630 549L629 548M632 548L633 549L632 548z"/>
<path style="fill:#eff1e8; stroke:none;" d="M684 548L685 549L684 548z"/>
<path style="fill:#455233; stroke:none;" d="M224 549L224 551L226 551L226 549L224 549M402 549L403 550L402 549z"/>
<path style="fill:#aaaea2; stroke:none;" d="M413 549L413 552L414 552L413 549z"/>
<path style="fill:#455233; stroke:none;" d="M444 549L445 550L444 549z"/>
<path style="fill:#aaaea2; stroke:none;" d="M445 549L445 551L447 551L447 549L445 549z"/>
<path style="fill:#455233; stroke:none;" d="M506 549L507 550L506 549z"/>
<path style="fill:#aaaea2; stroke:none;" d="M531 549L532 550L531 549M534 549L535 550L534 549M562 549L562 557L563 557L562 549M593 549L593 555L594 555L593 549M630 549L632 551L630 549M633 549L634 550L633 549z"/>
<path style="fill:#455233; stroke:none;" d="M688 549L689 550L688 549M690 549L689 552L690 549M821 549L821 552L822 552L821 549z"/>
<path style="fill:#aaaea2; stroke:none;" d="M824 549L825 550L824 549M438 550L439 551L438 550M532 550L533 551L532 550z"/>
<path style="fill:#455233; stroke:none;" d="M535 550L536 551L535 550M570 550L571 551L570 550M600 550L601 551L600 550M630 550L631 551L630 550z"/>
<path style="fill:#aaaea2; stroke:none;" d="M634 550L635 551L634 550z"/>
<path style="fill:#455233; stroke:none;" d="M682 550L683 557L684 557L682 550z"/>
<path style="fill:#aaaea2; stroke:none;" d="M689 550L690 551L689 550z"/>
<path style="fill:#455233; stroke:none;" d="M727.333 550.667L727.667 551.333L727.333 550.667M818 550L819 551L818 550z"/>
<path style="fill:#aaaea2; stroke:none;" d="M825 550L826 551L825 550M828 550L829 551L828 550M855 550L855 556L856 556L855 550M165 551L166 552L165 551M302 551L303 552L302 551z"/>
<path style="fill:#455233; stroke:none;" d="M489 551L490 552L489 551M569 551L570 552L569 551M601 551L602 552L601 551M631 551L632 552L631 551M635 551L636 552L635 551z"/>
<path style="fill:#aaaea2; stroke:none;" d="M826 551L827 552L826 551z"/>
<path style="fill:#455233; stroke:none;" d="M399 552L400 553L399 552z"/>
<path style="fill:#aaaea2; stroke:none;" d="M486 552L487 553L486 552M489 552L490 553L489 552M533 552L534 553L533 552M536 552L538 554L536 552z"/>
<path style="fill:#455233; stroke:none;" d="M537 552L538 553L537 552M632 552L633 553L632 552z"/>
<path style="fill:#aaaea2; stroke:none;" d="M725 552C722.944 556.076 720.436 556.856 716 557L716 558C720.132 558.312 729.245 558.492 725 552M752 552L752 556L753 556L752 552z"/>
<path style="fill:#eff1e8; stroke:none;" d="M797 552L798 553L797 552z"/>
<path style="fill:#455233; stroke:none;" d="M818 552L818 556L819 556L818 552M310 553L309 555L310 553z"/>
<path style="fill:#aaaea2; stroke:none;" d="M399 553L400 554L399 553M413 553L413 556L414 556L413 553M438 553L438 556L439 556L438 553z"/>
<path style="fill:#455233; stroke:none;" d="M486 553L487 554L486 553z"/>
<path style="fill:#aaaea2; stroke:none;" d="M490 553L491 554L490 553M534.333 553.667L534.667 554.333L534.333 553.667M633 553L634 554L633 553M636.667 553.333L637.333 553.667L636.667 553.333z"/>
<path style="fill:#455233; stroke:none;" d="M821 553L822 554L821 553z"/>
<path style="fill:#aaaea2; stroke:none;" d="M827 553L828 554L827 553M830 553L831 554L830 553z"/>
<path style="fill:#455233; stroke:none;" d="M399 554L400 555L399 554M448 554L449 555L448 554z"/>
<path style="fill:#aaaea2; stroke:none;" d="M449 554L449 557L450 557L449 554z"/>
<path style="fill:#455233; stroke:none;" d="M450.333 554.667L450.667 555.333L450.333 554.667z"/>
<path style="fill:#aaaea2; stroke:none;" d="M487 554L488 555L487 554z"/>
<path style="fill:#455233; stroke:none;" d="M491 554L493 556L491 554z"/>
<path style="fill:#aaaea2; stroke:none;" d="M538 554L539 555L538 554M572 554L571 555L571 556L572 557L573 557L574 556L574 555L572 554z"/>
<path style="fill:#455233; stroke:none;" d="M573 554L574 555L573 554M603 554L602 556L603 554z"/>
<path style="fill:#aaaea2; stroke:none;" d="M604 554L605 557L604 554z"/>
<path style="fill:#455233; stroke:none;" d="M622 554L623 555L622 554z"/>
<path style="fill:#aaaea2; stroke:none;" d="M634 554L635 555L634 554z"/>
<path style="fill:#455233; stroke:none;" d="M679 554L677 558L679 554z"/>
<path style="fill:#aaaea2; stroke:none;" d="M710.333 554.667L710.667 555.333L710.333 554.667M713.333 554.667L713.667 555.333L713.333 554.667M784 554L786 556L784 554z"/>
<path style="fill:#455233; stroke:none;" d="M785 554L786 555L785 554z"/>
<path style="fill:#eff1e8; stroke:none;" d="M797 554L798 555L797 554z"/>
<path style="fill:#455233; stroke:none;" d="M798 554L799 555L798 554z"/>
<path style="fill:#aaaea2; stroke:none;" d="M821 554L822 558L816 557L824 559L821 554M828 554L829 555L828 554M831 554L832 555L831 554z"/>
<path style="fill:#455233; stroke:none;" d="M865 554L866 555L865 554z"/>
<path style="fill:#aaaea2; stroke:none;" d="M864 555L864 556L867 557L867 554L864 555M399 555L398 559L405 558L402 556L399 558L399 555M491 555L492 556L491 555M502 555L503 556L502 555M535 555L536 556L535 555z"/>
<path style="fill:#455233; stroke:none;" d="M539 555L541 557L539 555M605 555L606 556L605 555z"/>
<path style="fill:#aaaea2; stroke:none;" d="M635 555L636 556L635 555M782 555L784 557L782 555z"/>
<path style="fill:#455233; stroke:none;" d="M795 555L796 556L795 555M828 555L829 556L828 555M832 555L833 556L832 555z"/>
<path style="fill:#aaaea2; stroke:none;" d="M853 555L854 556L853 555z"/>
<path style="fill:#455233; stroke:none;" d="M238 556L238 558L240 558L238 556z"/>
<path style="fill:#aaaea2; stroke:none;" d="M370 556L371 557L370 556z"/>
<path style="fill:#455233; stroke:none;" d="M398 556L399 557L398 556M403 556L404 557L403 556z"/>
<path style="fill:#aaaea2; stroke:none;" d="M412 556C412.435 559.463 416.041 559.68 418 557L412 556z"/>
<path style="fill:#455233; stroke:none;" d="M416 556L417 557L416 556M435 556L436 557L435 556z"/>
<path style="fill:#aaaea2; stroke:none;" d="M439 556L440 557L439 556z"/>
<path style="fill:#455233; stroke:none;" d="M444 556L445 557L444 556z"/>
<path style="fill:#aaaea2; stroke:none;" d="M445.667 556.333L446.333 556.667L445.667 556.333M489 556L490 557L489 556M493 556L494 557L493 556M500.667 556.333L501.333 556.667L500.667 556.333z"/>
<path style="fill:#455233; stroke:none;" d="M505 556L506 557L505 556M524 556L525 557L524 556z"/>
<path style="fill:#aaaea2; stroke:none;" d="M528 556C528 559.085 525.442 557.45 523 557L523 558L531 559L528 556z"/>
<path style="fill:#455233; stroke:none;" d="M529 556L530 557L529 556z"/>
<path style="fill:#aaaea2; stroke:none;" d="M536 556L537 557L536 556M539 556L540 557L539 556z"/>
<path style="fill:#455233; stroke:none;" d="M558 556L557 559L558 559L558 556z"/>
<path style="fill:#aaaea2; stroke:none;" d="M559 556L560 557L559 556z"/>
<path style="fill:#455233; stroke:none;" d="M563 556L564 557L563 556z"/>
<path style="fill:#aaaea2; stroke:none;" d="M568.667 556.333L569.333 556.667L568.667 556.333z"/>
<path style="fill:#455233; stroke:none;" d="M573 556L574 557L573 556z"/>
<path style="fill:#aaaea2; stroke:none;" d="M593 556L594 557L593 556z"/>
<path style="fill:#455233; stroke:none;" d="M594 556L595 557L594 556M599 556L600 557L599 556z"/>
<path style="fill:#aaaea2; stroke:none;" d="M600.667 556.333L601.333 556.667L600.667 556.333z"/>
<path style="fill:#455233; stroke:none;" d="M621 556L622 557L621 556M625 556L626 557L625 556z"/>
<path style="fill:#aaaea2; stroke:none;" d="M636 556L637 557L636 556M679 556L680 557L679 556M682 556L683 557L682 556M711 556L712 557L711 556M714 556L715 557L714 556z"/>
<path style="fill:#455233; stroke:none;" d="M715 556L716 557L715 556M722 556L723 557L722 556z"/>
<path style="fill:#eff1e8; stroke:none;" d="M724 556L725 557L724 556z"/>
<path style="fill:#aaaea2; stroke:none;" d="M755 556L756 557L755 556z"/>
<path style="fill:#455233; stroke:none;" d="M782 556L783 557L782 556z"/>
<path style="fill:#aaaea2; stroke:none;" d="M786 556L787 557L786 556z"/>
<path style="fill:#eff1e8; stroke:none;" d="M795 556L796 557L795 556z"/>
<path style="fill:#aaaea2; stroke:none;" d="M818 556L819 557L818 556z"/>
<path style="fill:#455233; stroke:none;" d="M822 556L823 557L822 556z"/>
<path style="fill:#aaaea2; stroke:none;" d="M829 556L830 557L829 556M833 556L834 557L833 556M852 556L851 559L855 559L855 558L852 556z"/>
<path style="fill:#455233; stroke:none;" d="M860 556L861 557L860 556z"/>
<path style="fill:#aaaea2; stroke:none;" d="M861 556L861 557L864 557L861 556M297 557L298 558L297 557z"/>
<path style="fill:#455233; stroke:none;" d="M315 557C315.513 559.475 315.604 559.575 318 559L315 557z"/>
<path style="fill:#aaaea2; stroke:none;" d="M368 557C370.232 559.554 373.768 559.554 376 557L368 557z"/>
<path style="fill:#455233; stroke:none;" d="M397.333 557.667L397.667 558.333L397.333 557.667M405 557L406 558L405 557M418.333 557.667L418.667 558.333L418.333 557.667M433 557L434 558L433 557z"/>
<path style="fill:#aaaea2; stroke:none;" d="M434 557L440 559L440 558L434 557M448 557L449 558L448 557M490 557L491 558L490 557M492 558L492 559L501 559L492 558M502 557L503 558L502 557z"/>
<path style="fill:#455233; stroke:none;" d="M522 557L523 558L522 557z"/>
<path style="fill:#aaaea2; stroke:none;" d="M537 557L538 558L537 557M541 557L538 558L538 559L541 557z"/>
<path style="fill:#455233; stroke:none;" d="M542.333 557.667L542.667 558.333L542.333 557.667z"/>
<path style="fill:#aaaea2; stroke:none;" d="M558 557L558 559L560 559L558 557z"/>
<path style="fill:#455233; stroke:none;" d="M572 557L573 558L572 557z"/>
<path style="fill:#aaaea2; stroke:none;" d="M603 557L604 558L603 557z"/>
<path style="fill:#455233; stroke:none;" d="M620 557L621 558L620 557M636 557L637 558L636 557z"/>
<path style="fill:#aaaea2; stroke:none;" d="M678 557C680.1 559.403 682.9 559.403 685 557L678 557M712 557L713 558L712 557z"/>
<path style="fill:#455233; stroke:none;" d="M749.333 557.667L749.667 558.333L749.333 557.667z"/>
<path style="fill:#aaaea2; stroke:none;" d="M750 557L758 558L758 557L750 557z"/>
<path style="fill:#eff1e8; stroke:none;" d="M794 557L795 558L794 557z"/>
<path style="fill:#455233; stroke:none;" d="M796 557L797 558L796 557M824.333 557.667L824.667 558.333L824.333 557.667z"/>
<path style="fill:#aaaea2; stroke:none;" d="M830 557L831 558L830 557M832 558L832 559L836 559L832 558z"/>
<path style="fill:#455233; stroke:none;" d="M835 557L836 558L835 557z"/>
<path style="fill:#aaaea2; stroke:none;" d="M865 557L866 558L865 557z"/>
<path style="fill:#455233; stroke:none;" d="M404 558L405 559L404 558M411 558L412 559L411 558M440 558L441 559L440 558z"/>
<path style="fill:#aaaea2; stroke:none;" d="M441 558L441 559L448 559L441 558z"/>
<path style="fill:#eff1e8; stroke:none;" d="M496 558L496 559L499 559L496 558z"/>
<path style="fill:#455233; stroke:none;" d="M501 558L502 559L501 558M523 558L524 559L523 558M531 558L532 559L531 558z"/>
<path style="fill:#aaaea2; stroke:none;" d="M561 558L562 559L561 558z"/>
<path style="fill:#455233; stroke:none;" d="M562 558L563 559L562 558z"/>
<path style="fill:#aaaea2; stroke:none;" d="M563 558L563 559L571 559L563 558z"/>
<path style="fill:#455233; stroke:none;" d="M593.667 558.333L594.333 558.667L593.667 558.333z"/>
<path style="fill:#aaaea2; stroke:none;" d="M595 558L595 559L602 559L595 558z"/>
<path style="fill:#455233; stroke:none;" d="M602 558L603 559L602 558z"/>
<path style="fill:#aaaea2; stroke:none;" d="M637.667 558.333L638.333 558.667L637.667 558.333M714.667 558.333L715.333 558.667L714.667 558.333z"/>
<path style="fill:#455233; stroke:none;" d="M757 558L758 559L757 558M785 558L786 559L785 558z"/>
<path style="fill:#aaaea2; stroke:none;" d="M786 558L787 559L786 558z"/>
<path style="fill:#455233; stroke:none;" d="M831 558L832 559L831 558M850 558L851 559L850 558M855.667 558.333L856.333 558.667L855.667 558.333z"/>
<path style="fill:#aaaea2; stroke:none;" d="M857 558L857 559L864 559L857 558z"/>
<path style="fill:#455233; stroke:none;" d="M864 558L865 559L864 558M241 560L241 562L243 562L243 560L241 560z"/>
<path style="fill:#aaaea2; stroke:none;" d="M174 561L175 562L174 561M280 561L281 562L280 561M293 561L294 562L293 561z"/>
<path style="fill:#455233; stroke:none;" d="M220.667 563.333L221.333 563.667L220.667 563.333z"/>
<path style="fill:#aaaea2; stroke:none;" d="M278 563L279 564L278 563z"/>
<path style="fill:#455233; stroke:none;" d="M302 563L302 567L303 567L302 563z"/>
<path style="fill:#aaaea2; stroke:none;" d="M192 565L193 566L192 565z"/>
<path style="fill:#455233; stroke:none;" d="M257.333 565.667L257.667 566.333L257.333 565.667z"/>
<path style="fill:#aaaea2; stroke:none;" d="M275 565L276 566L275 565M270 568L271 569L270 568z"/>
<path style="fill:#474f3f; stroke:none;" d="M207 570L208 571L207 570z"/>
<path style="fill:#aaaea2; stroke:none;" d="M279 572L280 573L279 572M190 573L191 574L190 573M209 573L210 574L209 573M255 574L256 575L255 574z"/>
<path style="fill:#455233; stroke:none;" d="M289 574L290 575L289 574z"/>
<path style="fill:#aaaea2; stroke:none;" d="M251 575L252 576L251 575z"/>
<path style="fill:#455233; stroke:none;" d="M287 575L288 576L287 575z"/>
<path style="fill:#aaaea2; stroke:none;" d="M197 577L198 578L197 577M263 580L264 581L263 580z"/>
<path style="fill:#474f3f; stroke:none;" d="M263 582L264 583L263 582z"/>
<path style="fill:#455233; stroke:none;" d="M197 584L198 585L197 584M199 585L200 586L199 585M193 588L193 590L195 590L195 588L193 588M252 590L252 592L261 589L252 590M199 590L203 592L199 590z"/>
</svg>
