<svg data-v-423bf9ae="" xmlns="http://www.w3.org/2000/svg" viewBox="0 0 517 90" class="iconLeftSlogan"><!----><!----><!----><g data-v-423bf9ae="" id="e7677507-b466-410b-ae97-f22ad5130e25" fill="#95CD43" transform="matrix(5.88235305117351,0,0,5.88235305117351,111.29022654571364,-20.647059868776267)"><path d="M1.12 13.51L1.12 3.71L2.56 3.71L7.39 11.05L7.39 3.71L8.74 3.71L8.74 13.51L7.60 13.51L2.45 5.77L2.45 13.51L1.12 13.51ZM10.98 13.51L10.98 3.71L16.95 3.71L16.95 4.91L12.31 4.91L12.31 7.78L16.00 7.78L16.00 8.99L12.31 8.99L12.31 12.31L17.08 12.31L17.08 13.51L10.98 13.51ZM22.96 13.71L22.96 13.71Q21.60 13.71 20.51 13.08L20.51 13.08L20.51 13.08Q19.42 12.45 18.79 11.28L18.79 11.28L18.79 11.28Q18.16 10.12 18.16 8.60L18.16 8.60L18.16 8.60Q18.16 7.07 18.81 5.92L18.81 5.92L18.81 5.92Q19.46 4.77 20.61 4.14L20.61 4.14L20.61 4.14Q21.76 3.51 23.23 3.51L23.23 3.51L23.23 3.51Q23.97 3.51 24.69 3.67L24.69 3.67L24.69 3.67Q25.41 3.82 25.98 4.07L25.98 4.07L25.86 5.24L25.86 5.24Q24.50 4.72 23.27 4.72L23.27 4.72L23.27 4.72Q22.05 4.72 21.23 5.23L21.23 5.23L21.23 5.23Q20.41 5.74 20.01 6.61L20.01 6.61L20.01 6.61Q19.61 7.49 19.61 8.61L19.61 8.61L19.61 8.61Q19.61 10.37 20.56 11.44L20.56 11.44L20.56 11.44Q21.50 12.50 23.34 12.50L23.34 12.50L23.34 12.50Q23.73 12.50 24.18 12.44L24.18 12.44L24.18 12.44Q24.63 12.38 24.98 12.24L24.98 12.24L24.98 9.80L23.44 9.80L23.44 8.60L26.31 8.60L26.31 12.96L26.31 12.96Q25.69 13.30 24.83 13.50L24.83 13.50L24.83 13.50Q23.97 13.71 22.96 13.71L22.96 13.71ZM32.37 13.71L32.37 13.71Q31.01 13.71 29.92 13.08L29.92 13.08L29.92 13.08Q28.83 12.45 28.20 11.28L28.20 11.28L28.20 11.28Q27.57 10.12 27.57 8.60L27.57 8.60L27.57 8.60Q27.57 7.07 28.22 5.92L28.22 5.92L28.22 5.92Q28.87 4.77 30.02 4.14L30.02 4.14L30.02 4.14Q31.16 3.51 32.63 3.51L32.63 3.51L32.63 3.51Q33.38 3.51 34.10 3.67L34.10 3.67L34.10 3.67Q34.82 3.82 35.39 4.07L35.39 4.07L35.27 5.24L35.27 5.24Q33.91 4.72 32.68 4.72L32.68 4.72L32.68 4.72Q31.46 4.72 30.64 5.23L30.64 5.23L30.64 5.23Q29.82 5.74 29.42 6.61L29.42 6.61L29.42 6.61Q29.02 7.49 29.02 8.61L29.02 8.61L29.02 8.61Q29.02 10.37 29.97 11.44L29.97 11.44L29.97 11.44Q30.91 12.50 32.75 12.50L32.75 12.50L32.75 12.50Q33.14 12.50 33.59 12.44L33.59 12.44L33.59 12.44Q34.03 12.38 34.38 12.24L34.38 12.24L34.38 9.80L32.84 9.80L32.84 8.60L35.71 8.60L35.71 12.96L35.71 12.96Q35.10 13.30 34.24 13.50L34.24 13.50L34.24 13.50Q33.38 13.71 32.37 13.71L32.37 13.71ZM37.55 13.51L37.55 3.71L40.73 3.71L40.73 3.71Q42.32 3.71 43.22 4.45L43.22 4.45L43.22 4.45Q44.11 5.18 44.11 6.69L44.11 6.69L44.11 6.69Q44.11 8.65 42.41 9.45L42.41 9.45L44.60 13.51L42.98 13.51L40.99 9.69L40.92 9.69L38.95 9.69L38.95 13.51L37.55 13.51ZM38.95 8.50L40.71 8.50L40.71 8.50Q41.69 8.50 42.21 8.02L42.21 8.02L42.21 8.02Q42.73 7.55 42.73 6.69L42.73 6.69L42.73 6.69Q42.73 5.84 42.22 5.37L42.22 5.37L42.22 5.37Q41.71 4.90 40.71 4.90L40.71 4.90L38.95 4.90L38.95 8.50ZM50.26 13.71L50.26 13.71Q48.86 13.71 47.76 13.08L47.76 13.08L47.76 13.08Q46.66 12.45 46.05 11.29L46.05 11.29L46.05 11.29Q45.43 10.14 45.43 8.61L45.43 8.61L45.43 8.61Q45.43 7.08 46.05 5.93L46.05 5.93L46.05 5.93Q46.66 4.77 47.76 4.14L47.76 4.14L47.76 4.14Q48.86 3.51 50.26 3.51L50.26 3.51L50.26 3.51Q51.66 3.51 52.76 4.14L52.76 4.14L52.76 4.14Q53.86 4.77 54.47 5.93L54.47 5.93L54.47 5.93Q55.09 7.08 55.09 8.61L55.09 8.61L55.09 8.61Q55.09 10.14 54.47 11.29L54.47 11.29L54.47 11.29Q53.86 12.45 52.76 13.08L52.76 13.08L52.76 13.08Q51.66 13.71 50.26 13.71L50.26 13.71ZM50.26 12.42L50.26 12.42Q51.35 12.42 52.12 11.92L52.12 11.92L52.12 11.92Q52.89 11.42 53.28 10.56L53.28 10.56L53.28 10.56Q53.66 9.70 53.66 8.61L53.66 8.61L53.66 8.61Q53.66 7.52 53.28 6.66L53.28 6.66L53.28 6.66Q52.89 5.80 52.12 5.30L52.12 5.30L52.12 5.30Q51.35 4.80 50.26 4.80L50.26 4.80L50.26 4.80Q49.17 4.80 48.40 5.30L48.40 5.30L48.40 5.30Q47.63 5.80 47.24 6.66L47.24 6.66L47.24 6.66Q46.86 7.52 46.86 8.61L46.86 8.61L46.86 8.61Q46.86 9.70 47.24 10.56L47.24 10.56L47.24 10.56Q47.63 11.42 48.40 11.92L48.40 11.92L48.40 11.92Q49.17 12.42 50.26 12.42L50.26 12.42ZM58.48 13.51L55.71 3.71L57.11 3.71L59.18 11.79L61.57 3.91L62.97 3.91L65.37 11.79L67.44 3.71L68.84 3.71L66.07 13.51L64.65 13.51L62.27 5.63L59.89 13.51L58.48 13.51Z"></path></g><!----><g data-v-423bf9ae="" id="4df05fb3-89b5-43fc-8603-73c7956405c8" transform="matrix(1.4290705410718707,0,0,1.4290705410718707,-18.840671438834235,-25.942524648292363)" stroke="none" fill="#95CD43"><path d="M49.14 48.593l.022.004-.001.022c.229.283.438.577.631.887 2.177 3.482 2.349 8.443 2.345 10.027-.002-1.634-.281-6.856-3.558-10.134-3.922-3.921-10.65-3.55-10.65-3.55s-.371 6.729 3.549 10.651c2.275 2.274 5.492 3.103 7.794 3.397-.045-.007-.087-.011-.133-.019v6.912h3.013V49.331c2.292-.31 5.432-1.149 7.663-3.383 3.921-3.921 3.55-10.65 3.55-10.65s-6.729-.371-10.65 3.551c-1.714 1.714-2.606 3.96-3.069 5.947"></path><path d="M50.755 18.511v3c15.709 0 28.489 12.78 28.489 28.489s-12.78 28.489-28.489 28.489c-15.644 0-28.379-12.677-28.482-28.297h5.971l-7.245-7.245-7.245 7.245h5.52c.104 17.274 14.186 31.297 31.482 31.297 17.363 0 31.489-14.126 31.489-31.489s-14.127-31.489-31.49-31.489z"></path></g><!----><g data-v-423bf9ae="" id="69651281-6693-4723-9f2f-a9579653ed7f" fill="#FFFFFF" transform="matrix(1.283508469025527,0,0,1.283508469025527,117.5190894878898,55.67457514261238)"><path d="M0.28 5.32L0.28 5.32L0.28 5.32Q0.28 4.76 0.42 3.88L0.42 3.88L0.42 3.88Q0.42 3.85 0.43 3.78L0.43 3.78L0.43 3.78Q0.43 3.71 0.44 3.69L0.44 3.69L0.44 3.69Q0.45 3.67 0.46 3.62L0.46 3.62L0.46 3.62Q0.46 3.57 0.48 3.55L0.48 3.55L0.48 3.55Q0.49 3.53 0.51 3.49L0.51 3.49L0.51 3.49Q0.53 3.46 0.56 3.44L0.56 3.44L0.56 3.44Q0.59 3.43 0.63 3.42L0.63 3.42L0.63 3.42Q0.67 3.40 0.73 3.39L0.73 3.39L0.73 3.39Q0.78 3.39 0.85 3.39L0.85 3.39L0.85 3.39Q1.08 3.39 2.04 3.44L2.04 3.44L2.04 3.44Q3.00 3.50 4.80 3.50L4.80 3.50L4.80 3.50Q7.88 3.50 9.11 3.43L9.11 3.43L9.11 3.43Q9.13 3.43 9.16 3.42L9.16 3.42L9.16 3.42Q9.20 3.42 9.21 3.42L9.21 3.42L9.21 3.42Q9.37 3.42 9.42 3.50L9.42 3.50L9.42 3.50Q9.48 3.58 9.48 3.65L9.48 3.65L9.48 3.65Q9.48 3.75 9.52 4.24L9.52 4.24L9.52 4.24Q9.56 4.73 9.56 4.79L9.56 4.79L9.56 4.79Q9.56 5.14 9.52 5.23L9.52 5.23L9.52 5.23Q9.48 5.32 9.34 5.32L9.34 5.32L9.34 5.32Q9.23 5.32 9.18 5.15L9.18 5.15L9.18 5.15Q9.07 4.75 8.99 4.60L8.99 4.60L8.99 4.60Q8.90 4.45 8.62 4.34L8.62 4.34L8.62 4.34Q8.34 4.23 7.77 4.23L7.77 4.23L5.95 4.23L5.95 4.23Q5.61 4.23 5.54 4.36L5.54 4.36L5.54 4.36Q5.46 4.49 5.46 5.12L5.46 5.12L5.46 5.81L5.46 5.81Q5.46 7.69 5.44 9.11L5.44 9.11L5.44 9.11Q5.42 10.54 5.42 10.93L5.42 10.93L5.42 10.93Q5.42 11.13 5.41 11.43L5.41 11.43L5.41 11.43Q5.40 11.73 5.40 11.84L5.40 11.84L5.40 11.84Q5.40 12.45 5.60 12.64L5.60 12.64L5.60 12.64Q5.78 12.81 6.01 12.90L6.01 12.90L6.01 12.90Q6.23 12.99 6.39 13.01L6.39 13.01L6.39 13.01Q6.55 13.02 6.66 13.08L6.66 13.08L6.66 13.08Q6.78 13.13 6.78 13.26L6.78 13.26L6.78 13.26Q6.78 13.41 6.71 13.45L6.71 13.45L6.71 13.45Q6.64 13.50 6.44 13.50L6.44 13.50L6.44 13.50Q6.27 13.50 5.70 13.44L5.70 13.44L5.70 13.44Q5.12 13.38 4.89 13.38L4.89 13.38L4.89 13.38Q4.72 13.38 4.21 13.43L4.21 13.43L4.21 13.43Q3.70 13.48 3.46 13.48L3.46 13.48L3.46 13.48Q2.94 13.48 2.94 13.26L2.94 13.26L2.94 13.26Q2.94 13.12 3.02 13.07L3.02 13.07L3.02 13.07Q3.11 13.02 3.35 12.98L3.35 12.98L3.35 12.98Q3.60 12.95 3.67 12.94L3.67 12.94L3.67 12.94Q4.14 12.82 4.20 12.38L4.20 12.38L4.20 12.38Q4.34 11.14 4.34 7.08L4.34 7.08L4.33 4.58L4.33 4.58Q4.33 4.31 4.17 4.25L4.17 4.25L4.17 4.25Q4.02 4.19 3.26 4.19L3.26 4.19L3.26 4.19Q2.28 4.19 1.79 4.24L1.79 4.24L1.79 4.24Q1.29 4.30 1.20 4.35L1.20 4.35L1.20 4.35Q1.12 4.40 1.01 4.54L1.01 4.54L1.01 4.54Q0.88 4.70 0.81 4.91L0.81 4.91L0.81 4.91Q0.73 5.11 0.71 5.24L0.71 5.24L0.71 5.24Q0.69 5.38 0.62 5.47L0.62 5.47L0.62 5.47Q0.56 5.56 0.43 5.56L0.43 5.56L0.43 5.56Q0.28 5.56 0.28 5.32ZM17.12 3.65L17.12 3.65L17.12 3.65Q17.12 3.50 17.51 3.50L17.51 3.50L17.51 3.50Q17.65 3.50 18.16 3.53L18.16 3.53L18.16 3.53Q18.66 3.56 19.10 3.56L19.10 3.56L19.10 3.56Q19.36 3.56 19.61 3.54L19.61 3.54L19.61 3.54Q19.85 3.53 20.33 3.53L20.33 3.53L20.33 3.53Q20.64 3.53 20.64 3.72L20.64 3.72L20.64 3.72Q20.64 3.96 20.15 3.96L20.15 3.96L20.15 3.96Q19.87 3.96 19.74 4.54L19.74 4.54L19.74 4.54Q19.61 5.11 19.61 5.71L19.61 5.71L19.61 6.23L19.61 6.23Q19.61 6.57 19.60 6.99L19.60 6.99L19.60 6.99Q19.59 7.42 19.59 7.52L19.59 7.52L19.59 7.52Q19.59 7.87 19.67 7.97L19.67 7.97L19.67 7.97Q19.75 8.06 20.06 8.06L20.06 8.06L20.06 8.06Q20.09 8.06 20.61 8.06L20.61 8.06L20.61 8.06Q21.13 8.05 22.36 8.05L22.36 8.05L22.36 8.05Q22.47 8.05 22.74 8.06L22.74 8.06L22.74 8.06Q23.00 8.06 23.61 8.07L23.61 8.07L23.61 8.07Q24.22 8.08 25.00 8.08L25.00 8.08L25.00 8.08Q25.10 8.08 25.13 7.84L25.13 7.84L25.13 7.84Q25.16 7.56 25.16 6.13L25.16 6.13L25.16 5.38L25.16 5.38Q25.16 4.83 25.04 4.51L25.04 4.51L25.04 4.51Q24.92 4.19 24.74 4.09L24.74 4.09L24.74 4.09Q24.57 3.99 24.39 3.96L24.39 3.96L24.39 3.96Q24.22 3.93 24.10 3.88L24.10 3.88L24.10 3.88Q23.98 3.84 23.98 3.70L23.98 3.70L23.98 3.70Q23.98 3.56 24.53 3.56L24.53 3.56L24.53 3.56Q24.67 3.56 25.13 3.57L25.13 3.57L25.13 3.57Q25.59 3.58 25.89 3.58L25.89 3.58L25.89 3.58Q26.03 3.58 26.36 3.57L26.36 3.57L26.36 3.57Q26.70 3.56 26.98 3.56L26.98 3.56L26.98 3.56Q27.30 3.56 27.30 3.74L27.30 3.74L27.30 3.74Q27.30 3.92 27.10 3.92L27.10 3.92L27.10 3.92Q26.71 3.92 26.51 4.16L26.51 4.16L26.51 4.16Q26.31 4.40 26.31 4.79L26.31 4.79L26.31 4.79Q26.31 5.25 26.28 6.42L26.28 6.42L26.28 6.42Q26.26 7.59 26.26 8.19L26.26 8.19L26.26 8.19Q26.26 8.51 26.25 9.20L26.25 9.20L26.25 9.20Q26.24 9.90 26.24 10.29L26.24 10.29L26.24 10.81L26.24 10.81Q26.24 11.23 26.26 11.58L26.26 11.58L26.26 11.58Q26.29 11.94 26.29 12.10L26.29 12.10L26.29 12.10Q26.29 13.01 27.47 13.13L27.47 13.13L27.47 13.13Q27.64 13.13 27.64 13.29L27.64 13.29L27.64 13.29Q27.64 13.38 27.50 13.41L27.50 13.41L27.50 13.41Q27.36 13.44 26.95 13.44L26.95 13.44L26.95 13.44Q26.80 13.44 26.44 13.40L26.44 13.40L26.44 13.40Q26.08 13.37 25.87 13.37L25.87 13.37L25.87 13.37Q25.62 13.37 25.26 13.40L25.26 13.40L25.26 13.40Q24.91 13.44 24.56 13.44L24.56 13.44L24.56 13.44Q24.39 13.44 24.32 13.44L24.32 13.44L24.32 13.44Q24.25 13.44 24.17 13.42L24.17 13.42L24.17 13.42Q24.09 13.40 24.07 13.36L24.07 13.36L24.07 13.36Q24.05 13.33 24.05 13.26L24.05 13.26L24.05 13.26Q24.05 13.17 24.19 13.10L24.19 13.10L24.19 13.10Q24.33 13.03 24.50 12.99L24.50 12.99L24.50 12.99Q24.67 12.95 24.83 12.83L24.83 12.83L24.83 12.83Q24.99 12.71 25.02 12.53L25.02 12.53L25.02 12.53Q25.12 12.03 25.12 11.51L25.12 11.51L25.12 11.51Q25.12 11.37 25.12 11.12L25.12 11.12L25.12 11.12Q25.13 10.86 25.13 10.75L25.13 10.75L25.13 10.75Q25.13 10.50 25.14 9.93L25.14 9.93L25.14 9.93Q25.16 9.35 25.16 9.03L25.16 9.03L25.16 9.03Q25.16 8.82 24.99 8.74L24.99 8.74L24.99 8.74Q24.82 8.65 24.28 8.65L24.28 8.65L24.28 8.65Q24.07 8.65 23.31 8.68L23.31 8.68L22.55 8.69L22.55 8.69Q21.94 8.69 21.17 8.67L21.17 8.67L21.17 8.67Q20.40 8.65 19.98 8.65L19.98 8.65L19.98 8.65Q19.77 8.65 19.70 8.74L19.70 8.74L19.70 8.74Q19.63 8.82 19.63 9.17L19.63 9.17L19.63 9.17Q19.63 9.52 19.60 10.08L19.60 10.08L19.60 10.08Q19.57 10.64 19.57 10.89L19.57 10.89L19.57 11.49L19.57 11.49Q19.57 12.10 19.68 12.39L19.68 12.39L19.68 12.39Q19.80 12.68 20.23 12.96L20.23 12.96L20.23 12.96Q20.34 13.03 20.83 13.03L20.83 13.03L20.83 13.03Q20.93 13.03 21.01 13.08L21.01 13.08L21.01 13.08Q21.10 13.13 21.10 13.19L21.10 13.19L21.10 13.19Q21.10 13.44 20.65 13.44L20.65 13.44L20.65 13.44Q20.23 13.44 19.96 13.41L19.96 13.41L19.96 13.41Q19.68 13.38 19.49 13.38L19.49 13.38L19.49 13.38Q19.10 13.38 18.65 13.42L18.65 13.42L18.65 13.42Q18.20 13.45 17.98 13.45L17.98 13.45L17.98 13.45Q17.32 13.45 17.32 13.24L17.32 13.24L17.32 13.24Q17.32 13.12 17.45 13.07L17.45 13.07L17.45 13.07Q17.58 13.02 17.75 13.00L17.75 13.00L17.75 13.00Q17.92 12.98 18.10 12.82L18.10 12.82L18.10 12.82Q18.28 12.66 18.35 12.35L18.35 12.35L18.35 12.35Q18.40 12.11 18.47 10.91L18.47 10.91L18.47 10.91Q18.54 9.70 18.54 8.61L18.54 8.61L18.54 7.81L18.54 7.81Q18.54 7.63 18.54 7.12L18.54 7.12L18.54 7.12Q18.55 6.61 18.55 6.30L18.55 6.30L18.55 6.30Q18.55 5.24 18.47 4.63L18.47 4.63L18.47 4.63Q18.42 4.28 18.09 4.09L18.09 4.09L18.09 4.09Q17.77 3.89 17.42 3.89L17.42 3.89L17.42 3.89Q17.28 3.89 17.20 3.80L17.20 3.80L17.20 3.80Q17.12 3.71 17.12 3.65ZM35.20 3.65L35.20 3.65L35.20 3.65Q35.20 3.46 35.59 3.46L35.59 3.46L35.59 3.46Q35.64 3.46 35.77 3.47L35.77 3.47L35.77 3.47Q35.90 3.49 35.97 3.49L35.97 3.49L35.97 3.49Q36.01 3.49 37.28 3.52L37.28 3.52L37.28 3.52Q38.56 3.56 39.38 3.56L39.38 3.56L39.38 3.56Q39.68 3.56 40.83 3.53L40.83 3.53L40.83 3.53Q41.99 3.50 42.18 3.50L42.18 3.50L42.18 3.50Q42.45 3.50 42.45 3.82L42.45 3.82L42.45 3.82Q42.45 3.91 42.36 4.38L42.36 4.38L42.36 4.38Q42.28 4.84 42.28 5.25L42.28 5.25L42.28 5.25Q42.28 5.38 42.21 5.47L42.21 5.47L42.21 5.47Q42.14 5.56 42.06 5.56L42.06 5.56L42.06 5.56Q41.85 5.56 41.85 5.26L41.85 5.26L41.85 5.26Q41.85 4.89 41.61 4.58L41.61 4.58L41.61 4.58Q41.37 4.27 41.02 4.26L41.02 4.26L41.02 4.26Q39.76 4.16 39.09 4.16L39.09 4.16L38.72 4.16L38.72 4.16Q38.00 4.16 37.88 4.26L37.88 4.26L37.88 4.26Q37.76 4.37 37.73 5.01L37.73 5.01L37.73 5.01Q37.67 6.02 37.67 7.35L37.67 7.35L37.67 7.35Q37.67 8.05 37.94 8.06L37.94 8.06L38.29 8.06L38.88 8.06L39.31 8.06L39.31 8.06Q40.15 8.06 40.43 8.01L40.43 8.01L40.43 8.01Q40.71 7.95 40.94 7.80L40.94 7.80L40.94 7.80Q41.20 7.62 41.26 7.28L41.26 7.28L41.26 7.28Q41.30 7.04 41.45 7.04L41.45 7.04L41.45 7.04Q41.58 7.04 41.61 7.08L41.61 7.08L41.61 7.08Q41.64 7.13 41.64 7.27L41.64 7.27L41.64 7.27Q41.64 7.36 41.58 7.91L41.58 7.91L41.58 7.91Q41.52 8.46 41.52 8.74L41.52 8.74L41.52 8.74Q41.52 9.00 41.54 9.24L41.54 9.24L41.54 9.24Q41.57 9.48 41.57 9.59L41.57 9.59L41.57 9.59Q41.57 9.94 41.47 9.94L41.47 9.94L41.47 9.94Q41.26 9.94 41.16 9.60L41.16 9.60L41.16 9.60Q40.96 9.02 40.81 8.92L40.81 8.92L40.81 8.92Q40.52 8.72 39.47 8.72L39.47 8.72L39.47 8.72Q39.05 8.72 38.79 8.72L38.79 8.72L38.79 8.72Q38.53 8.72 38.45 8.71L38.45 8.71L38.45 8.71Q38.37 8.71 38.32 8.71L38.32 8.71L38.32 8.71Q38.28 8.71 38.23 8.71L38.23 8.71L38.23 8.71Q37.66 8.71 37.66 8.97L37.66 8.97L37.66 8.97Q37.66 9.38 37.65 9.99L37.65 9.99L37.65 9.99Q37.63 10.60 37.63 10.99L37.63 10.99L37.63 11.55L37.63 11.55Q37.63 12.56 37.97 12.66L37.97 12.66L37.97 12.66Q38.32 12.77 38.57 12.77L38.57 12.77L38.57 12.77Q39.62 12.77 40.41 12.67L40.41 12.67L40.41 12.67Q41.20 12.57 41.60 12.42L41.60 12.42L41.60 12.42Q42 12.28 42.27 12.10L42.27 12.10L42.27 12.10Q42.53 11.93 42.61 11.78L42.61 11.78L42.61 11.78Q42.69 11.63 42.76 11.54L42.76 11.54L42.76 11.54Q42.84 11.44 42.92 11.44L42.92 11.44L42.92 11.44Q43.09 11.44 43.09 11.68L43.09 11.68L43.09 11.68Q43.09 12.28 42.49 12.89L42.49 12.89L42.49 12.89Q41.89 13.51 41.44 13.51L41.44 13.51L41.44 13.51Q40.43 13.51 39.16 13.44L39.16 13.44L39.16 13.44Q37.90 13.37 37.59 13.37L37.59 13.37L37.59 13.37Q37.20 13.37 36.61 13.43L36.61 13.43L36.61 13.43Q36.02 13.50 35.69 13.50L35.69 13.50L35.69 13.50Q35.39 13.50 35.39 13.36L35.39 13.36L35.39 13.36Q35.39 13.23 35.39 13.19L35.39 13.19L35.39 13.19Q35.39 13.15 35.43 13.12L35.43 13.12L35.43 13.12Q35.48 13.09 35.52 13.08L35.52 13.08L35.52 13.08Q35.57 13.08 35.71 13.03L35.71 13.03L35.71 13.03Q35.84 12.99 35.99 12.92L35.99 12.92L35.99 12.92Q36.33 12.75 36.43 12.26L36.43 12.26L36.43 12.26Q36.54 11.77 36.54 10.21L36.54 10.21L36.54 8.47L36.54 8.47Q36.54 8.09 36.56 7.29L36.56 7.29L36.56 7.29Q36.58 6.50 36.58 6.05L36.58 6.05L36.58 6.05Q36.58 5.67 36.55 4.77L36.55 4.77L36.55 4.77Q36.54 4.37 36.20 4.14L36.20 4.14L36.20 4.14Q35.87 3.92 35.42 3.91L35.42 3.91L35.42 3.91Q35.20 3.91 35.20 3.65ZM60.97 8.83L60.97 8.83L60.97 8.83Q60.97 7.31 61.58 6.09L61.58 6.09L61.58 6.09Q62.19 4.87 63.45 4.12L63.45 4.12L63.45 4.12Q64.71 3.37 66.44 3.37L66.44 3.37L66.44 3.37Q67.12 3.37 67.70 3.48L67.70 3.48L67.70 3.48Q68.29 3.58 68.67 3.72L68.67 3.72L68.67 3.72Q69.05 3.86 69.33 4.01L69.33 4.01L69.33 4.01Q69.61 4.16 69.75 4.26L69.75 4.26L69.75 4.26Q69.90 4.37 69.93 4.37L69.93 4.37L69.93 4.37Q69.97 4.37 70.12 4.26L70.12 4.26L70.12 4.26Q70.27 4.16 70.32 4.16L70.32 4.16L70.32 4.16Q70.53 4.16 70.53 4.44L70.53 4.44L70.53 4.44Q70.55 4.84 70.59 5.29L70.59 5.29L70.59 5.29Q70.64 5.74 70.69 6.03L70.69 6.03L70.69 6.03Q70.73 6.33 70.73 6.38L70.73 6.38L70.73 6.38Q70.73 6.62 70.56 6.62L70.56 6.62L70.56 6.62Q70.39 6.62 70.32 6.45L70.32 6.45L70.32 6.45Q69.83 5.39 68.68 4.65L68.68 4.65L68.68 4.65Q67.54 3.92 66.32 3.92L66.32 3.92L66.32 3.92Q64.57 3.92 63.43 5.02L63.43 5.02L63.43 5.02Q62.29 6.12 62.29 8.06L62.29 8.06L62.29 8.06Q62.29 9.35 62.76 10.49L62.76 10.49L62.76 10.49Q63.24 11.62 64.21 12.36L64.21 12.36L64.21 12.36Q65.18 13.10 66.44 13.10L66.44 13.10L66.44 13.10Q67.52 13.10 68.40 12.61L68.40 12.61L68.40 12.61Q69.27 12.12 69.37 11.49L69.37 11.49L69.37 11.49Q69.41 11.16 69.41 9.73L69.41 9.73L69.41 9.73Q69.41 9.18 69.17 8.95L69.17 8.95L69.17 8.95Q69.01 8.78 68.56 8.72L68.56 8.72L68.56 8.72Q68.14 8.68 68.07 8.55L68.07 8.55L68.07 8.55Q68.04 8.50 68.04 8.41L68.04 8.41L68.04 8.41Q68.04 8.26 68.29 8.26L68.29 8.26L68.29 8.26Q68.47 8.26 69.08 8.29L69.08 8.29L69.08 8.29Q69.68 8.33 69.85 8.33L69.85 8.33L69.85 8.33Q70.13 8.33 70.45 8.32L70.45 8.32L70.45 8.32Q70.77 8.32 70.97 8.32L70.97 8.32L71.18 8.32L71.18 8.32Q71.40 8.32 71.40 8.44L71.40 8.44L71.40 8.44Q71.40 8.54 71.04 8.69L71.04 8.69L71.04 8.69Q70.69 8.85 70.64 9.09L70.64 9.09L70.64 9.09Q70.55 9.69 70.55 10.65L70.55 10.65L70.55 10.65Q70.55 11.07 70.56 11.40L70.56 11.40L70.56 11.40Q70.57 11.72 70.58 11.85L70.58 11.85L70.58 11.85Q70.59 11.98 70.60 12.08L70.60 12.08L70.60 12.08Q70.62 12.18 70.62 12.22L70.62 12.22L70.62 12.22Q70.62 12.29 70.51 12.33L70.51 12.33L70.51 12.33Q70.41 12.36 70.17 12.42L70.17 12.42L70.17 12.42Q69.93 12.49 69.73 12.60L69.73 12.60L69.64 12.66L69.64 12.66Q69.54 12.73 69.44 12.78L69.44 12.78L69.44 12.78Q69.34 12.84 69.18 12.92L69.18 12.92L69.18 12.92Q69.02 13.01 68.85 13.09L68.85 13.09L68.85 13.09Q68.68 13.17 68.47 13.26L68.47 13.26L68.47 13.26Q68.26 13.36 68.04 13.43L68.04 13.43L68.04 13.43Q67.82 13.50 67.58 13.55L67.58 13.55L67.58 13.55Q67.34 13.61 67.08 13.64L67.08 13.64L67.08 13.64Q66.82 13.68 66.57 13.68L66.57 13.68L66.57 13.68Q65.04 13.68 63.92 13.26L63.92 13.26L63.92 13.26Q62.79 12.85 62.17 12.14L62.17 12.14L62.17 12.14Q61.56 11.44 61.26 10.61L61.26 10.61L61.26 10.61Q60.97 9.79 60.97 8.83ZM79.09 3.70L79.09 3.70L79.09 3.70Q79.09 3.47 79.49 3.47L79.49 3.47L81.82 3.47L81.82 3.47Q82.14 3.47 82.56 3.45L82.56 3.45L82.56 3.45Q82.98 3.43 83.22 3.43L83.22 3.43L83.22 3.43Q84.48 3.43 85.37 4.07L85.37 4.07L85.37 4.07Q86.27 4.70 86.27 5.78L86.27 5.78L86.27 5.78Q86.27 6.50 86.00 7.03L86.00 7.03L86.00 7.03Q85.72 7.57 85.39 7.81L85.39 7.81L85.39 7.81Q85.06 8.05 84.79 8.22L84.79 8.22L84.79 8.22Q84.52 8.40 84.52 8.46L84.52 8.46L84.52 8.46Q84.52 8.62 85.69 10.27L85.69 10.27L85.69 10.27Q86.87 11.91 87.30 12.38L87.30 12.38L87.30 12.38Q87.84 13.03 88.59 13.03L88.59 13.03L88.59 13.03Q88.79 13.03 88.79 13.20L88.79 13.20L88.79 13.20Q88.79 13.41 88.62 13.48L88.62 13.48L88.62 13.48Q88.45 13.55 87.75 13.55L87.75 13.55L87.75 13.55Q87.09 13.55 86.55 13.23L86.55 13.23L86.55 13.23Q85.85 12.82 84.18 10.09L84.18 10.09L84.18 10.09Q84.08 9.94 84.04 9.87L84.04 9.87L84.04 9.87Q83.37 8.78 83.01 8.78L83.01 8.78L82.71 8.78L81.86 8.78L81.86 8.78Q81.69 8.78 81.66 8.92L81.66 8.92L81.66 8.92Q81.62 9.06 81.62 9.77L81.62 9.77L81.62 9.77Q81.62 10.44 81.62 10.88L81.62 10.88L81.62 10.88Q81.62 11.31 81.63 11.43L81.63 11.43L81.63 11.43Q81.63 11.55 81.63 11.63L81.63 11.63L81.63 11.63Q81.63 11.70 81.63 11.75L81.63 11.75L81.63 11.75Q81.63 12.32 81.90 12.63L81.90 12.63L81.90 12.63Q82.17 12.95 82.50 13.00L82.50 13.00L82.50 13.00Q82.82 13.05 83.09 13.11L83.09 13.11L83.09 13.11Q83.36 13.17 83.36 13.31L83.36 13.31L83.36 13.31Q83.36 13.54 83.10 13.54L83.10 13.54L83.10 13.54Q83.09 13.54 82.14 13.49L82.14 13.49L82.14 13.49Q81.19 13.44 81.10 13.44L81.10 13.44L81.10 13.44Q80.70 13.44 80.14 13.47L80.14 13.47L80.14 13.47Q79.58 13.50 79.56 13.50L79.56 13.50L79.56 13.50Q79.27 13.50 79.27 13.27L79.27 13.27L79.27 13.27Q79.27 13.12 79.45 13.05L79.45 13.05L79.45 13.05Q79.63 12.99 79.86 12.96L79.86 12.96L79.86 12.96Q80.08 12.94 80.26 12.66L80.26 12.66L80.26 12.66Q80.44 12.38 80.44 11.86L80.44 11.86L80.44 11.86Q80.44 11.49 80.45 9.90L80.45 9.90L80.45 9.90Q80.46 8.30 80.46 7.45L80.46 7.45L80.46 7.45Q80.46 6.58 80.45 5.86L80.45 5.86L80.45 5.86Q80.44 5.14 80.44 5.08L80.44 5.08L80.44 5.08Q80.44 4.56 80.23 4.29L80.23 4.29L80.23 4.29Q80.02 4.02 79.77 3.98L79.77 3.98L79.77 3.98Q79.51 3.95 79.30 3.89L79.30 3.89L79.30 3.89Q79.09 3.84 79.09 3.70ZM81.62 5.54L81.62 5.94L81.62 5.94Q81.62 7.38 81.63 7.72L81.63 7.72L81.63 7.72Q81.65 8.06 81.73 8.12L81.73 8.12L81.73 8.12Q81.94 8.25 82.33 8.25L82.33 8.25L82.47 8.25L82.88 8.25L82.88 8.25Q84.07 8.25 84.58 7.70L84.58 7.70L84.58 7.70Q85.09 7.15 85.09 6.30L85.09 6.30L85.09 6.30Q85.09 5.43 84.41 4.72L84.41 4.72L84.41 4.72Q83.73 4.00 82.36 4.00L82.36 4.00L82.36 4.00Q81.84 4.00 81.73 4.28L81.73 4.28L81.73 4.28Q81.62 4.55 81.62 5.54L81.62 5.54ZM96.14 3.65L96.14 3.65L96.14 3.65Q96.14 3.46 96.53 3.46L96.53 3.46L96.53 3.46Q96.59 3.46 96.71 3.47L96.71 3.47L96.71 3.47Q96.84 3.49 96.91 3.49L96.91 3.49L96.91 3.49Q96.95 3.49 98.22 3.52L98.22 3.52L98.22 3.52Q99.50 3.56 100.32 3.56L100.32 3.56L100.32 3.56Q100.62 3.56 101.77 3.53L101.77 3.53L101.77 3.53Q102.93 3.50 103.12 3.50L103.12 3.50L103.12 3.50Q103.39 3.50 103.39 3.82L103.39 3.82L103.39 3.82Q103.39 3.91 103.31 4.38L103.31 4.38L103.31 4.38Q103.22 4.84 103.22 5.25L103.22 5.25L103.22 5.25Q103.22 5.38 103.15 5.47L103.15 5.47L103.15 5.47Q103.08 5.56 103.00 5.56L103.00 5.56L103.00 5.56Q102.79 5.56 102.79 5.26L102.79 5.26L102.79 5.26Q102.79 4.89 102.55 4.58L102.55 4.58L102.55 4.58Q102.31 4.27 101.96 4.26L101.96 4.26L101.96 4.26Q100.70 4.16 100.03 4.16L100.03 4.16L99.67 4.16L99.67 4.16Q98.94 4.16 98.82 4.26L98.82 4.26L98.82 4.26Q98.70 4.37 98.67 5.01L98.67 5.01L98.67 5.01Q98.62 6.02 98.62 7.35L98.62 7.35L98.62 7.35Q98.62 8.05 98.88 8.06L98.88 8.06L99.23 8.06L99.82 8.06L100.25 8.06L100.25 8.06Q101.09 8.06 101.37 8.01L101.37 8.01L101.37 8.01Q101.65 7.95 101.88 7.80L101.88 7.80L101.88 7.80Q102.14 7.62 102.20 7.28L102.20 7.28L102.20 7.28Q102.24 7.04 102.40 7.04L102.40 7.04L102.40 7.04Q102.52 7.04 102.55 7.08L102.55 7.08L102.55 7.08Q102.58 7.13 102.58 7.27L102.58 7.27L102.58 7.27Q102.58 7.36 102.52 7.91L102.52 7.91L102.52 7.91Q102.47 8.46 102.47 8.74L102.47 8.74L102.47 8.74Q102.47 9.00 102.49 9.24L102.49 9.24L102.49 9.24Q102.51 9.48 102.51 9.59L102.51 9.59L102.51 9.59Q102.51 9.94 102.41 9.94L102.41 9.94L102.41 9.94Q102.20 9.94 102.10 9.60L102.10 9.60L102.10 9.60Q101.91 9.02 101.75 8.92L101.75 8.92L101.75 8.92Q101.46 8.72 100.41 8.72L100.41 8.72L100.41 8.72Q99.99 8.72 99.73 8.72L99.73 8.72L99.73 8.72Q99.47 8.72 99.39 8.71L99.39 8.71L99.39 8.71Q99.32 8.71 99.27 8.71L99.27 8.71L99.27 8.71Q99.22 8.71 99.18 8.71L99.18 8.71L99.18 8.71Q98.60 8.71 98.60 8.97L98.60 8.97L98.60 8.97Q98.60 9.38 98.59 9.99L98.59 9.99L98.59 9.99Q98.57 10.60 98.57 10.99L98.57 10.99L98.57 11.55L98.57 11.55Q98.57 12.56 98.91 12.66L98.91 12.66L98.91 12.66Q99.26 12.77 99.51 12.77L99.51 12.77L99.51 12.77Q100.56 12.77 101.35 12.67L101.35 12.67L101.35 12.67Q102.14 12.57 102.54 12.42L102.54 12.42L102.54 12.42Q102.94 12.28 103.21 12.10L103.21 12.10L103.21 12.10Q103.47 11.93 103.55 11.78L103.55 11.78L103.55 11.78Q103.63 11.63 103.70 11.54L103.70 11.54L103.70 11.54Q103.78 11.44 103.87 11.44L103.87 11.44L103.87 11.44Q104.03 11.44 104.03 11.68L104.03 11.68L104.03 11.68Q104.03 12.28 103.43 12.89L103.43 12.89L103.43 12.89Q102.83 13.51 102.38 13.51L102.38 13.51L102.38 13.51Q101.37 13.51 100.11 13.44L100.11 13.44L100.11 13.44Q98.84 13.37 98.53 13.37L98.53 13.37L98.53 13.37Q98.14 13.37 97.55 13.43L97.55 13.43L97.55 13.43Q96.96 13.50 96.63 13.50L96.63 13.50L96.63 13.50Q96.33 13.50 96.33 13.36L96.33 13.36L96.33 13.36Q96.33 13.23 96.33 13.19L96.33 13.19L96.33 13.19Q96.33 13.15 96.38 13.12L96.38 13.12L96.38 13.12Q96.42 13.09 96.47 13.08L96.47 13.08L96.47 13.08Q96.52 13.08 96.65 13.03L96.65 13.03L96.65 13.03Q96.78 12.99 96.94 12.92L96.94 12.92L96.94 12.92Q97.27 12.75 97.38 12.26L97.38 12.26L97.38 12.26Q97.48 11.77 97.48 10.21L97.48 10.21L97.48 8.47L97.48 8.47Q97.48 8.09 97.50 7.29L97.50 7.29L97.50 7.29Q97.52 6.50 97.52 6.05L97.52 6.05L97.52 6.05Q97.52 5.67 97.50 4.77L97.50 4.77L97.50 4.77Q97.48 4.37 97.15 4.14L97.15 4.14L97.15 4.14Q96.81 3.92 96.36 3.91L96.36 3.91L96.36 3.91Q96.14 3.91 96.14 3.65ZM111.59 3.65L111.59 3.65L111.59 3.65Q111.59 3.46 111.99 3.46L111.99 3.46L111.99 3.46Q112.04 3.46 112.17 3.47L112.17 3.47L112.17 3.47Q112.29 3.49 112.36 3.49L112.36 3.49L112.36 3.49Q112.41 3.49 113.68 3.52L113.68 3.52L113.68 3.52Q114.95 3.56 115.78 3.56L115.78 3.56L115.78 3.56Q116.07 3.56 117.23 3.53L117.23 3.53L117.23 3.53Q118.38 3.50 118.58 3.50L118.58 3.50L118.58 3.50Q118.85 3.50 118.85 3.82L118.85 3.82L118.85 3.82Q118.85 3.91 118.76 4.38L118.76 4.38L118.76 4.38Q118.68 4.84 118.68 5.25L118.68 5.25L118.68 5.25Q118.68 5.38 118.61 5.47L118.61 5.47L118.61 5.47Q118.54 5.56 118.45 5.56L118.45 5.56L118.45 5.56Q118.24 5.56 118.24 5.26L118.24 5.26L118.24 5.26Q118.24 4.89 118.01 4.58L118.01 4.58L118.01 4.58Q117.77 4.27 117.42 4.26L117.42 4.26L117.42 4.26Q116.16 4.16 115.49 4.16L115.49 4.16L115.12 4.16L115.12 4.16Q114.39 4.16 114.28 4.26L114.28 4.26L114.28 4.26Q114.16 4.37 114.13 5.01L114.13 5.01L114.13 5.01Q114.07 6.02 114.07 7.35L114.07 7.35L114.07 7.35Q114.07 8.05 114.34 8.06L114.34 8.06L114.69 8.06L115.28 8.06L115.71 8.06L115.71 8.06Q116.55 8.06 116.83 8.01L116.83 8.01L116.83 8.01Q117.11 7.95 117.33 7.80L117.33 7.80L117.33 7.80Q117.60 7.62 117.66 7.28L117.66 7.28L117.66 7.28Q117.70 7.04 117.85 7.04L117.85 7.04L117.85 7.04Q117.98 7.04 118.01 7.08L118.01 7.08L118.01 7.08Q118.03 7.13 118.03 7.27L118.03 7.27L118.03 7.27Q118.03 7.36 117.98 7.91L117.98 7.91L117.98 7.91Q117.92 8.46 117.92 8.74L117.92 8.74L117.92 8.74Q117.92 9.00 117.94 9.24L117.94 9.24L117.94 9.24Q117.96 9.48 117.96 9.59L117.96 9.59L117.96 9.59Q117.96 9.94 117.87 9.94L117.87 9.94L117.87 9.94Q117.66 9.94 117.56 9.60L117.56 9.60L117.56 9.60Q117.36 9.02 117.21 8.92L117.21 8.92L117.21 8.92Q116.91 8.72 115.86 8.72L115.86 8.72L115.86 8.72Q115.44 8.72 115.19 8.72L115.19 8.72L115.19 8.72Q114.93 8.72 114.85 8.71L114.85 8.71L114.85 8.71Q114.77 8.71 114.72 8.71L114.72 8.71L114.72 8.71Q114.67 8.71 114.63 8.71L114.63 8.71L114.63 8.71Q114.06 8.71 114.06 8.97L114.06 8.97L114.06 8.97Q114.06 9.38 114.04 9.99L114.04 9.99L114.04 9.99Q114.03 10.60 114.03 10.99L114.03 10.99L114.03 11.55L114.03 11.55Q114.03 12.56 114.37 12.66L114.37 12.66L114.37 12.66Q114.72 12.77 114.97 12.77L114.97 12.77L114.97 12.77Q116.02 12.77 116.81 12.67L116.81 12.67L116.81 12.67Q117.60 12.57 118.00 12.42L118.00 12.42L118.00 12.42Q118.40 12.28 118.66 12.10L118.66 12.10L118.66 12.10Q118.93 11.93 119.01 11.78L119.01 11.78L119.01 11.78Q119.08 11.63 119.16 11.54L119.16 11.54L119.16 11.54Q119.24 11.44 119.32 11.44L119.32 11.44L119.32 11.44Q119.49 11.44 119.49 11.68L119.49 11.68L119.49 11.68Q119.49 12.28 118.89 12.89L118.89 12.89L118.89 12.89Q118.29 13.51 117.84 13.51L117.84 13.51L117.84 13.51Q116.83 13.51 115.56 13.44L115.56 13.44L115.56 13.44Q114.30 13.37 113.99 13.37L113.99 13.37L113.99 13.37Q113.60 13.37 113.01 13.43L113.01 13.43L113.01 13.43Q112.42 13.50 112.08 13.50L112.08 13.50L112.08 13.50Q111.79 13.50 111.79 13.36L111.79 13.36L111.79 13.36Q111.79 13.23 111.79 13.19L111.79 13.19L111.79 13.19Q111.79 13.15 111.83 13.12L111.83 13.12L111.83 13.12Q111.87 13.09 111.92 13.08L111.92 13.08L111.92 13.08Q111.97 13.08 112.11 13.03L112.11 13.03L112.11 13.03Q112.24 12.99 112.39 12.92L112.39 12.92L112.39 12.92Q112.73 12.75 112.83 12.26L112.83 12.26L112.83 12.26Q112.94 11.77 112.94 10.21L112.94 10.21L112.94 8.47L112.94 8.47Q112.94 8.09 112.96 7.29L112.96 7.29L112.96 7.29Q112.98 6.50 112.98 6.05L112.98 6.05L112.98 6.05Q112.98 5.67 112.95 4.77L112.95 4.77L112.95 4.77Q112.94 4.37 112.60 4.14L112.60 4.14L112.60 4.14Q112.27 3.92 111.82 3.91L111.82 3.91L111.82 3.91Q111.59 3.91 111.59 3.65ZM127.05 3.77L127.05 3.77L127.05 3.77Q127.05 3.68 127.15 3.60L127.15 3.60L127.15 3.60Q127.25 3.53 127.40 3.53L127.40 3.53L127.40 3.53Q127.48 3.53 127.68 3.54L127.68 3.54L127.68 3.54Q127.88 3.54 127.93 3.54L127.93 3.54L127.93 3.54Q128.14 3.54 128.32 3.53L128.32 3.53L128.32 3.53Q128.51 3.51 128.62 3.51L128.62 3.51L128.62 3.51Q128.74 3.51 128.91 3.59L128.91 3.59L128.91 3.59Q129.08 3.67 129.11 3.75L129.11 3.75L129.11 3.75Q129.14 3.79 129.26 3.94L129.26 3.94L129.26 3.94Q129.39 4.09 129.60 4.33L129.60 4.33L129.60 4.33Q129.81 4.56 129.98 4.79L129.98 4.79L129.98 4.79Q131.88 7.27 135.07 10.77L135.07 10.77L135.07 10.77Q135.16 10.86 135.28 10.99L135.28 10.99L135.28 10.99Q135.39 11.12 135.44 11.18L135.44 11.18L135.44 11.18Q135.49 11.24 135.55 11.30L135.55 11.30L135.55 11.30Q135.60 11.35 135.64 11.38L135.64 11.38L135.64 11.38Q135.67 11.40 135.70 11.40L135.70 11.40L135.70 11.40Q135.84 11.40 135.84 10.53L135.84 10.53L135.84 8.89L135.84 8.89Q135.84 7.95 135.84 7.31L135.84 7.31L135.84 7.31Q135.83 6.66 135.82 6.38L135.82 6.38L135.82 6.38Q135.81 6.09 135.81 6.02L135.81 6.02L135.81 5.92L135.81 5.92Q135.81 5.45 135.75 5.11L135.75 5.11L135.75 5.11Q135.69 4.77 135.60 4.59L135.60 4.59L135.60 4.59Q135.52 4.41 135.36 4.28L135.36 4.28L135.36 4.28Q135.20 4.16 135.09 4.12L135.09 4.12L135.09 4.12Q134.97 4.09 134.76 4.05L134.76 4.05L134.76 4.05Q134.55 4.00 134.47 3.98L134.47 3.98L134.47 3.98Q134.19 3.89 134.19 3.74L134.19 3.74L134.19 3.74Q134.19 3.53 134.46 3.53L134.46 3.53L134.46 3.53Q134.54 3.53 135.13 3.54L135.13 3.54L135.13 3.54Q135.72 3.54 135.79 3.54L135.79 3.54L135.79 3.54Q136.12 3.54 136.54 3.53L136.54 3.53L136.54 3.53Q136.95 3.51 137.05 3.51L137.05 3.51L137.05 3.51Q137.28 3.51 137.38 3.56L137.38 3.56L137.38 3.56Q137.47 3.61 137.47 3.75L137.47 3.75L137.47 3.75Q137.47 3.81 137.39 3.86L137.39 3.86L137.39 3.86Q137.31 3.91 137.23 3.94L137.23 3.94L137.23 3.94Q137.14 3.98 137.06 4.00L137.06 4.00L136.98 4.03L136.98 4.03Q136.51 4.28 136.51 5.61L136.51 5.61L136.51 6.15L136.51 6.15Q136.51 7.21 136.44 9.83L136.44 9.83L136.44 9.83Q136.36 12.46 136.36 13.08L136.36 13.08L136.36 13.36L136.36 13.36Q136.36 13.68 136.16 13.68L136.16 13.68L136.16 13.68Q136.04 13.68 135.94 13.58L135.94 13.58L135.94 13.58Q131.29 8.19 130.39 7.17L130.39 7.17L130.39 7.17Q129.49 6.16 129.39 6.16L129.39 6.16L129.39 6.16Q129.25 6.16 129.25 7.11L129.25 7.11L129.25 7.11Q129.25 8.44 129.19 9.97L129.19 9.97L129.19 9.97Q129.14 11.51 129.14 11.65L129.14 11.65L129.14 11.65Q129.14 12.28 129.35 12.61L129.35 12.61L129.35 12.61Q129.57 12.94 129.82 12.98L129.82 12.98L129.82 12.98Q130.07 13.02 130.29 13.07L130.29 13.07L130.29 13.07Q130.51 13.12 130.51 13.26L130.51 13.26L130.51 13.26Q130.51 13.41 130.46 13.45L130.46 13.45L130.46 13.45Q130.41 13.50 130.28 13.50L130.28 13.50L130.28 13.50Q130.19 13.50 129.84 13.48L129.84 13.48L129.84 13.48Q129.50 13.47 128.79 13.47L128.79 13.47L128.79 13.47Q128.66 13.47 128.27 13.48L128.27 13.48L128.27 13.48Q127.88 13.50 127.60 13.50L127.60 13.50L127.60 13.50Q127.29 13.50 127.29 13.27L127.29 13.27L127.29 13.27Q127.29 13.15 127.47 13.11L127.47 13.11L127.47 13.11Q127.65 13.08 127.92 12.89L127.92 12.89L127.92 12.89Q128.18 12.71 128.32 12.21L128.32 12.21L128.32 12.21Q128.41 11.89 128.53 9.60L128.53 9.60L128.53 9.60Q128.66 7.32 128.66 6.45L128.66 6.45L128.66 6.45Q128.66 5.25 128.32 4.65L128.32 4.65L128.32 4.65Q127.99 4.06 127.23 3.98L127.23 3.98L127.23 3.98Q127.05 3.96 127.05 3.77ZM155.20 3.68L155.20 3.68L155.20 3.68Q155.20 3.64 155.22 3.60L155.22 3.60L155.22 3.60Q155.25 3.56 155.34 3.50L155.34 3.50L155.34 3.50Q155.43 3.44 155.57 3.44L155.57 3.44L155.95 3.44L155.95 3.44Q156.28 3.44 157.03 3.49L157.03 3.49L157.03 3.49Q157.78 3.53 158.98 3.53L158.98 3.53L158.98 3.53Q159.98 3.53 160.75 3.49L160.75 3.49L160.75 3.49Q161.52 3.46 162.16 3.46L162.16 3.46L162.16 3.46Q162.40 3.46 162.40 3.79L162.40 3.79L162.40 3.79Q162.40 3.92 162.37 4.11L162.37 4.11L162.37 4.11Q162.34 4.30 162.29 4.61L162.29 4.61L162.29 4.61Q162.23 4.93 162.20 5.22L162.20 5.22L162.20 5.22Q162.18 5.50 161.99 5.50L161.99 5.50L161.99 5.50Q161.80 5.50 161.80 5.22L161.80 5.22L161.80 5.22Q161.80 4.30 161.15 4.26L161.15 4.26L161.15 4.26Q159.04 4.09 158.63 4.09L158.63 4.09L158.63 4.09Q158.00 4.09 157.86 4.24L157.86 4.24L157.86 4.24Q157.71 4.40 157.70 4.87L157.70 4.87L157.70 4.87Q157.70 4.94 157.70 4.98L157.70 4.98L157.70 4.98Q157.65 5.74 157.65 7.32L157.65 7.32L157.65 7.32Q157.65 8.01 157.91 8.02L157.91 8.02L157.91 8.02Q157.98 8.02 158.09 8.03L158.09 8.03L158.09 8.03Q158.21 8.04 158.26 8.04L158.26 8.04L158.26 8.04Q158.35 8.04 158.55 8.03L158.55 8.03L158.55 8.03Q158.75 8.02 158.86 8.02L158.86 8.02L159.29 8.02L159.29 8.02Q160.13 8.02 160.41 7.97L160.41 7.97L160.41 7.97Q160.68 7.92 160.90 7.77L160.90 7.77L160.90 7.77Q161.03 7.69 161.10 7.57L161.10 7.57L161.10 7.57Q161.17 7.46 161.20 7.31L161.20 7.31L161.20 7.31Q161.22 7.15 161.27 7.08L161.27 7.08L161.27 7.08Q161.31 7.01 161.43 7.01L161.43 7.01L161.43 7.01Q161.56 7.01 161.59 7.06L161.59 7.06L161.59 7.06Q161.62 7.10 161.62 7.24L161.62 7.24L161.62 7.24Q161.62 7.34 161.55 7.73L161.55 7.73L161.55 7.73Q161.49 8.12 161.49 8.40L161.49 8.40L161.49 8.40Q161.49 8.67 161.54 9.05L161.54 9.05L161.54 9.05Q161.59 9.44 161.59 9.55L161.59 9.55L161.59 9.55Q161.59 9.77 161.54 9.83L161.54 9.83L161.54 9.83Q161.49 9.90 161.39 9.90L161.39 9.90L161.39 9.90Q161.15 9.90 161.10 9.55L161.10 9.55L161.10 9.55Q161.10 9.52 161.08 9.42L161.08 9.42L161.08 9.42Q161.07 9.32 161.06 9.28L161.06 9.28L161.06 9.28Q161.06 9.24 161.03 9.16L161.03 9.16L161.03 9.16Q161 9.09 160.97 9.04L160.97 9.04L160.97 9.04Q160.94 9.00 160.90 8.95L160.90 8.95L160.90 8.95Q160.86 8.90 160.79 8.88L160.79 8.88L160.79 8.88Q160.59 8.79 160.09 8.74L160.09 8.74L160.09 8.74Q159.59 8.68 159.43 8.68L159.43 8.68L158.21 8.68L158.21 8.68Q157.64 8.68 157.64 8.95L157.64 8.95L157.64 8.95Q157.64 9.35 157.63 9.96L157.63 9.96L157.63 9.96Q157.61 10.57 157.61 10.96L157.61 10.96L157.61 10.96Q157.61 11.06 157.61 11.25L157.61 11.25L157.61 11.25Q157.60 11.44 157.60 11.52L157.60 11.52L157.60 11.52Q157.60 11.80 157.65 12.08L157.65 12.08L157.65 12.08Q157.71 12.36 157.98 12.67L157.98 12.67L157.98 12.67Q158.26 12.98 158.72 12.98L158.72 12.98L158.72 12.98Q159.14 12.98 159.14 13.23L159.14 13.23L159.14 13.23Q159.14 13.27 159.11 13.33L159.11 13.33L159.11 13.33Q159.08 13.38 158.98 13.44L158.98 13.44L158.98 13.44Q158.87 13.50 158.70 13.50L158.70 13.50L158.70 13.50Q158.48 13.50 158.00 13.44L158.00 13.44L158.00 13.44Q157.51 13.38 157.35 13.38L157.35 13.38L157.35 13.38Q156.95 13.38 156.47 13.43L156.47 13.43L156.47 13.43Q155.99 13.47 155.65 13.47L155.65 13.47L155.65 13.47Q155.37 13.47 155.37 13.31L155.37 13.31L155.37 13.31Q155.37 13.13 155.44 13.09L155.44 13.09L155.44 13.09Q155.50 13.05 155.97 12.88L155.97 12.88L155.97 12.88Q156.34 12.75 156.42 12.13L156.42 12.13L156.42 12.13Q156.51 11.51 156.52 9.60L156.52 9.60L156.52 9.60Q156.52 8.86 156.52 8.44L156.52 8.44L156.52 8.44Q156.52 8.06 156.54 7.26L156.54 7.26L156.54 7.26Q156.56 6.45 156.56 6.01L156.56 6.01L156.56 5.19L156.56 5.19Q156.56 4.27 155.90 3.96L155.90 3.96L155.90 3.96Q155.81 3.92 155.67 3.90L155.67 3.90L155.67 3.90Q155.53 3.88 155.44 3.88L155.44 3.88L155.44 3.88Q155.34 3.88 155.27 3.83L155.27 3.83L155.27 3.83Q155.20 3.78 155.20 3.68ZM169.96 3.68L169.96 3.68L169.96 3.68Q169.96 3.61 169.97 3.58L169.97 3.58L169.97 3.58Q169.99 3.56 170.06 3.53L170.06 3.53L170.06 3.53Q170.13 3.50 170.28 3.50L170.28 3.50L170.28 3.50Q170.44 3.50 170.93 3.53L170.93 3.53L170.93 3.53Q171.42 3.56 171.86 3.56L171.86 3.56L171.86 3.56Q172.14 3.56 172.38 3.54L172.38 3.54L172.38 3.54Q172.61 3.53 173.18 3.53L173.18 3.53L173.18 3.53Q173.47 3.53 173.47 3.72L173.47 3.72L173.47 3.72Q173.47 3.85 173.38 3.88L173.38 3.88L173.38 3.88Q173.28 3.91 173.13 3.92L173.13 3.92L173.13 3.92Q172.98 3.93 172.84 4.02L172.84 4.02L172.84 4.02Q172.69 4.10 172.59 4.43L172.59 4.43L172.59 4.43Q172.49 4.76 172.49 5.32L172.49 5.32L172.49 5.71L172.49 5.71Q172.49 6.37 172.49 7.37L172.49 7.37L172.49 7.37Q172.48 8.37 172.48 8.74L172.48 8.74L172.48 8.74Q172.48 9.17 172.49 9.39L172.49 9.39L172.49 9.39Q172.49 9.62 172.52 10.04L172.52 10.04L172.52 10.04Q172.55 10.47 172.60 10.72L172.60 10.72L172.60 10.72Q172.65 10.96 172.76 11.32L172.76 11.32L172.76 11.32Q172.87 11.68 173.03 11.89L173.03 11.89L173.03 11.89Q173.19 12.10 173.44 12.35L173.44 12.35L173.44 12.35Q173.68 12.60 174.01 12.73L174.01 12.73L174.01 12.73Q174.33 12.87 174.76 12.96L174.76 12.96L174.76 12.96Q175.20 13.05 175.73 13.05L175.73 13.05L175.73 13.05Q176.18 13.05 176.43 13.03L176.43 13.03L176.43 13.03Q176.68 13.02 177.12 12.94L177.12 12.94L177.12 12.94Q177.56 12.87 177.82 12.72L177.82 12.72L177.82 12.72Q178.08 12.57 178.41 12.27L178.41 12.27L178.41 12.27Q178.74 11.97 178.92 11.54L178.92 11.54L178.92 11.54Q179.10 11.10 179.23 10.43L179.23 10.43L179.23 10.43Q179.35 9.76 179.35 8.90L179.35 8.90L179.35 8.90Q179.35 7.49 179.35 6.75L179.35 6.75L179.35 6.75Q179.34 6.01 179.34 5.94L179.34 5.94L179.34 5.94Q179.34 5.45 179.32 5.17L179.32 5.17L179.32 5.17Q179.30 4.89 179.18 4.55L179.18 4.55L179.18 4.55Q179.06 4.21 178.84 4.06L178.84 4.06L178.84 4.06Q178.70 3.96 178.47 3.93L178.47 3.93L178.47 3.93Q178.25 3.89 178.11 3.87L178.11 3.87L178.11 3.87Q177.97 3.85 177.97 3.75L177.97 3.75L177.97 3.75Q177.97 3.53 178.25 3.53L178.25 3.53L178.25 3.53Q178.33 3.53 178.79 3.54L178.79 3.54L178.79 3.54Q179.26 3.56 179.33 3.56L179.33 3.56L179.33 3.56Q179.66 3.56 180.04 3.54L180.04 3.54L180.04 3.54Q180.42 3.51 180.52 3.51L180.52 3.51L180.52 3.51Q180.81 3.51 180.81 3.70L180.81 3.70L180.81 3.70Q180.81 3.81 180.51 3.98L180.51 3.98L180.51 3.98Q180.21 4.16 180.14 4.30L180.14 4.30L180.14 4.30Q179.98 4.59 179.98 5.22L179.98 5.22L179.98 5.22Q179.98 5.32 179.99 5.62L179.99 5.62L179.99 5.62Q180.00 5.92 180.00 6.16L180.00 6.16L180.00 6.16Q180.00 8.85 179.77 10.28L179.77 10.28L179.77 10.28Q179.55 11.70 179.09 12.36L179.09 12.36L179.09 12.36Q178.64 13.01 177.73 13.40L177.73 13.40L177.73 13.40Q176.99 13.71 175.73 13.71L175.73 13.71L175.73 13.71Q173.39 13.71 172.41 12.81L172.41 12.81L172.41 12.81Q171.64 12.10 171.46 11.09L171.46 11.09L171.46 11.09Q171.28 10.09 171.28 7.64L171.28 7.64L171.28 7.41L171.28 7.41Q171.28 6.86 171.29 6.20L171.29 6.20L171.29 6.20Q171.30 5.54 171.30 5.39L171.30 5.39L171.30 5.39Q171.30 4.62 171.12 4.33L171.12 4.33L171.12 4.33Q170.94 4.05 170.27 3.95L170.27 3.95L170.27 3.95Q169.96 3.91 169.96 3.68ZM188.37 5.32L188.37 5.32L188.37 5.32Q188.37 4.76 188.51 3.88L188.51 3.88L188.51 3.88Q188.51 3.85 188.52 3.78L188.52 3.78L188.52 3.78Q188.52 3.71 188.53 3.69L188.53 3.69L188.53 3.69Q188.54 3.67 188.55 3.62L188.55 3.62L188.55 3.62Q188.55 3.57 188.57 3.55L188.57 3.55L188.57 3.55Q188.58 3.53 188.60 3.49L188.60 3.49L188.60 3.49Q188.62 3.46 188.65 3.44L188.65 3.44L188.65 3.44Q188.68 3.43 188.72 3.42L188.72 3.42L188.72 3.42Q188.76 3.40 188.82 3.39L188.82 3.39L188.82 3.39Q188.87 3.39 188.94 3.39L188.94 3.39L188.94 3.39Q189.17 3.39 190.13 3.44L190.13 3.44L190.13 3.44Q191.09 3.50 192.89 3.50L192.89 3.50L192.89 3.50Q195.97 3.50 197.20 3.43L197.20 3.43L197.20 3.43Q197.22 3.43 197.25 3.42L197.25 3.42L197.25 3.42Q197.29 3.42 197.30 3.42L197.30 3.42L197.30 3.42Q197.46 3.42 197.51 3.50L197.51 3.50L197.51 3.50Q197.57 3.58 197.57 3.65L197.57 3.65L197.57 3.65Q197.57 3.75 197.61 4.24L197.61 4.24L197.61 4.24Q197.65 4.73 197.65 4.79L197.65 4.79L197.65 4.79Q197.65 5.14 197.61 5.23L197.61 5.23L197.61 5.23Q197.57 5.32 197.43 5.32L197.43 5.32L197.43 5.32Q197.32 5.32 197.27 5.15L197.27 5.15L197.27 5.15Q197.16 4.75 197.08 4.60L197.08 4.60L197.08 4.60Q196.99 4.45 196.71 4.34L196.71 4.34L196.71 4.34Q196.43 4.23 195.86 4.23L195.86 4.23L194.04 4.23L194.04 4.23Q193.70 4.23 193.63 4.36L193.63 4.36L193.63 4.36Q193.55 4.49 193.55 5.12L193.55 5.12L193.55 5.81L193.55 5.81Q193.55 7.69 193.53 9.11L193.53 9.11L193.53 9.11Q193.51 10.54 193.51 10.93L193.51 10.93L193.51 10.93Q193.51 11.13 193.50 11.43L193.50 11.43L193.50 11.43Q193.49 11.73 193.49 11.84L193.49 11.84L193.49 11.84Q193.49 12.45 193.69 12.64L193.69 12.64L193.69 12.64Q193.87 12.81 194.10 12.90L194.10 12.90L194.10 12.90Q194.32 12.99 194.48 13.01L194.48 13.01L194.48 13.01Q194.64 13.02 194.75 13.08L194.75 13.08L194.75 13.08Q194.87 13.13 194.87 13.26L194.87 13.26L194.87 13.26Q194.87 13.41 194.80 13.45L194.80 13.45L194.80 13.45Q194.73 13.50 194.53 13.50L194.53 13.50L194.53 13.50Q194.36 13.50 193.79 13.44L193.79 13.44L193.79 13.44Q193.21 13.38 192.98 13.38L192.98 13.38L192.98 13.38Q192.81 13.38 192.30 13.43L192.30 13.43L192.30 13.43Q191.79 13.48 191.55 13.48L191.55 13.48L191.55 13.48Q191.03 13.48 191.03 13.26L191.03 13.26L191.03 13.26Q191.03 13.12 191.11 13.07L191.11 13.07L191.11 13.07Q191.20 13.02 191.44 12.98L191.44 12.98L191.44 12.98Q191.69 12.95 191.76 12.94L191.76 12.94L191.76 12.94Q192.23 12.82 192.29 12.38L192.29 12.38L192.29 12.38Q192.43 11.14 192.43 7.08L192.43 7.08L192.42 4.58L192.42 4.58Q192.42 4.31 192.26 4.25L192.26 4.25L192.26 4.25Q192.11 4.19 191.35 4.19L191.35 4.19L191.35 4.19Q190.37 4.19 189.88 4.24L189.88 4.24L189.88 4.24Q189.38 4.30 189.29 4.35L189.29 4.35L189.29 4.35Q189.21 4.40 189.10 4.54L189.10 4.54L189.10 4.54Q188.97 4.70 188.90 4.91L188.90 4.91L188.90 4.91Q188.82 5.11 188.80 5.24L188.80 5.24L188.80 5.24Q188.78 5.38 188.71 5.47L188.71 5.47L188.71 5.47Q188.65 5.56 188.52 5.56L188.52 5.56L188.52 5.56Q188.37 5.56 188.37 5.32ZM205.21 3.68L205.21 3.68L205.21 3.68Q205.21 3.61 205.23 3.58L205.23 3.58L205.23 3.58Q205.24 3.56 205.31 3.53L205.31 3.53L205.31 3.53Q205.38 3.50 205.53 3.50L205.53 3.50L205.53 3.50Q205.69 3.50 206.18 3.53L206.18 3.53L206.18 3.53Q206.67 3.56 207.12 3.56L207.12 3.56L207.12 3.56Q207.40 3.56 207.63 3.54L207.63 3.54L207.63 3.54Q207.86 3.53 208.43 3.53L208.43 3.53L208.43 3.53Q208.73 3.53 208.73 3.72L208.73 3.72L208.73 3.72Q208.73 3.85 208.63 3.88L208.63 3.88L208.63 3.88Q208.53 3.91 208.38 3.92L208.38 3.92L208.38 3.92Q208.24 3.93 208.09 4.02L208.09 4.02L208.09 4.02Q207.94 4.10 207.84 4.43L207.84 4.43L207.84 4.43Q207.75 4.76 207.75 5.32L207.75 5.32L207.75 5.71L207.75 5.71Q207.75 6.37 207.74 7.37L207.74 7.37L207.74 7.37Q207.73 8.37 207.73 8.74L207.73 8.74L207.73 8.74Q207.73 9.17 207.74 9.39L207.74 9.39L207.74 9.39Q207.75 9.62 207.77 10.04L207.77 10.04L207.77 10.04Q207.80 10.47 207.85 10.72L207.85 10.72L207.85 10.72Q207.90 10.96 208.01 11.32L208.01 11.32L208.01 11.32Q208.12 11.68 208.29 11.89L208.29 11.89L208.29 11.89Q208.45 12.10 208.69 12.35L208.69 12.35L208.69 12.35Q208.94 12.60 209.26 12.73L209.26 12.73L209.26 12.73Q209.58 12.87 210.01 12.96L210.01 12.96L210.01 12.96Q210.45 13.05 210.98 13.05L210.98 13.05L210.98 13.05Q211.43 13.05 211.68 13.03L211.68 13.03L211.68 13.03Q211.93 13.02 212.37 12.94L212.37 12.94L212.37 12.94Q212.81 12.87 213.07 12.72L213.07 12.72L213.07 12.72Q213.33 12.57 213.66 12.27L213.66 12.27L213.66 12.27Q213.99 11.97 214.17 11.54L214.17 11.54L214.17 11.54Q214.35 11.10 214.48 10.43L214.48 10.43L214.48 10.43Q214.61 9.76 214.61 8.90L214.61 8.90L214.61 8.90Q214.61 7.49 214.60 6.75L214.60 6.75L214.60 6.75Q214.59 6.01 214.59 5.94L214.59 5.94L214.59 5.94Q214.59 5.45 214.57 5.17L214.57 5.17L214.57 5.17Q214.55 4.89 214.43 4.55L214.43 4.55L214.43 4.55Q214.31 4.21 214.09 4.06L214.09 4.06L214.09 4.06Q213.95 3.96 213.72 3.93L213.72 3.93L213.72 3.93Q213.50 3.89 213.36 3.87L213.36 3.87L213.36 3.87Q213.22 3.85 213.22 3.75L213.22 3.75L213.22 3.75Q213.22 3.53 213.50 3.53L213.50 3.53L213.50 3.53Q213.58 3.53 214.05 3.54L214.05 3.54L214.05 3.54Q214.51 3.56 214.58 3.56L214.58 3.56L214.58 3.56Q214.91 3.56 215.29 3.54L215.29 3.54L215.29 3.54Q215.67 3.51 215.77 3.51L215.77 3.51L215.77 3.51Q216.06 3.51 216.06 3.70L216.06 3.70L216.06 3.70Q216.06 3.81 215.76 3.98L215.76 3.98L215.76 3.98Q215.46 4.16 215.39 4.30L215.39 4.30L215.39 4.30Q215.24 4.59 215.24 5.22L215.24 5.22L215.24 5.22Q215.24 5.32 215.24 5.62L215.24 5.62L215.24 5.62Q215.25 5.92 215.25 6.16L215.25 6.16L215.25 6.16Q215.25 8.85 215.03 10.28L215.03 10.28L215.03 10.28Q214.80 11.70 214.35 12.36L214.35 12.36L214.35 12.36Q213.89 13.01 212.98 13.40L212.98 13.40L212.98 13.40Q212.24 13.71 210.98 13.71L210.98 13.71L210.98 13.71Q208.64 13.71 207.66 12.81L207.66 12.81L207.66 12.81Q206.89 12.10 206.71 11.09L206.71 11.09L206.71 11.09Q206.53 10.09 206.53 7.64L206.53 7.64L206.53 7.41L206.53 7.41Q206.53 6.86 206.54 6.20L206.54 6.20L206.54 6.20Q206.56 5.54 206.56 5.39L206.56 5.39L206.56 5.39Q206.56 4.62 206.37 4.33L206.37 4.33L206.37 4.33Q206.19 4.05 205.52 3.95L205.52 3.95L205.52 3.95Q205.21 3.91 205.21 3.68ZM223.62 3.70L223.62 3.70L223.62 3.70Q223.62 3.47 224.03 3.47L224.03 3.47L226.35 3.47L226.35 3.47Q226.67 3.47 227.09 3.45L227.09 3.45L227.09 3.45Q227.51 3.43 227.75 3.43L227.75 3.43L227.75 3.43Q229.01 3.43 229.91 4.07L229.91 4.07L229.91 4.07Q230.80 4.70 230.80 5.78L230.80 5.78L230.80 5.78Q230.80 6.50 230.53 7.03L230.53 7.03L230.53 7.03Q230.26 7.57 229.93 7.81L229.93 7.81L229.93 7.81Q229.60 8.05 229.33 8.22L229.33 8.22L229.33 8.22Q229.05 8.40 229.05 8.46L229.05 8.46L229.05 8.46Q229.05 8.62 230.23 10.27L230.23 10.27L230.23 10.27Q231.41 11.91 231.84 12.38L231.84 12.38L231.84 12.38Q232.37 13.03 233.13 13.03L233.13 13.03L233.13 13.03Q233.32 13.03 233.32 13.20L233.32 13.20L233.32 13.20Q233.32 13.41 233.16 13.48L233.16 13.48L233.16 13.48Q232.99 13.55 232.29 13.55L232.29 13.55L232.29 13.55Q231.63 13.55 231.08 13.23L231.08 13.23L231.08 13.23Q230.38 12.82 228.72 10.09L228.72 10.09L228.72 10.09Q228.62 9.94 228.58 9.87L228.58 9.87L228.58 9.87Q227.91 8.78 227.54 8.78L227.54 8.78L227.25 8.78L226.39 8.78L226.39 8.78Q226.23 8.78 226.19 8.92L226.19 8.92L226.19 8.92Q226.16 9.06 226.16 9.77L226.16 9.77L226.16 9.77Q226.16 10.44 226.16 10.88L226.16 10.88L226.16 10.88Q226.16 11.31 226.16 11.43L226.16 11.43L226.16 11.43Q226.17 11.55 226.17 11.63L226.17 11.63L226.17 11.63Q226.17 11.70 226.17 11.75L226.17 11.75L226.17 11.75Q226.17 12.32 226.44 12.63L226.44 12.63L226.44 12.63Q226.70 12.95 227.03 13.00L227.03 13.00L227.03 13.00Q227.36 13.05 227.63 13.11L227.63 13.11L227.63 13.11Q227.89 13.17 227.89 13.31L227.89 13.31L227.89 13.31Q227.89 13.54 227.64 13.54L227.64 13.54L227.64 13.54Q227.63 13.54 226.67 13.49L226.67 13.49L226.67 13.49Q225.72 13.44 225.64 13.44L225.64 13.44L225.64 13.44Q225.23 13.44 224.67 13.47L224.67 13.47L224.67 13.47Q224.11 13.50 224.10 13.50L224.10 13.50L224.10 13.50Q223.80 13.50 223.80 13.27L223.80 13.27L223.80 13.27Q223.80 13.12 223.99 13.05L223.99 13.05L223.99 13.05Q224.17 12.99 224.39 12.96L224.39 12.96L224.39 12.96Q224.62 12.94 224.80 12.66L224.80 12.66L224.80 12.66Q224.98 12.38 224.98 11.86L224.98 11.86L224.98 11.86Q224.98 11.49 224.99 9.90L224.99 9.90L224.99 9.90Q224.99 8.30 224.99 7.45L224.99 7.45L224.99 7.45Q224.99 6.58 224.99 5.86L224.99 5.86L224.99 5.86Q224.98 5.14 224.98 5.08L224.98 5.08L224.98 5.08Q224.98 4.56 224.77 4.29L224.77 4.29L224.77 4.29Q224.56 4.02 224.30 3.98L224.30 3.98L224.30 3.98Q224.04 3.95 223.83 3.89L223.83 3.89L223.83 3.89Q223.62 3.84 223.62 3.70ZM226.16 5.54L226.16 5.94L226.16 5.94Q226.16 7.38 226.17 7.72L226.17 7.72L226.17 7.72Q226.18 8.06 226.27 8.12L226.27 8.12L226.27 8.12Q226.48 8.25 226.87 8.25L226.87 8.25L227.01 8.25L227.42 8.25L227.42 8.25Q228.61 8.25 229.12 7.70L229.12 7.70L229.12 7.70Q229.63 7.15 229.63 6.30L229.63 6.30L229.63 6.30Q229.63 5.43 228.95 4.72L228.95 4.72L228.95 4.72Q228.27 4.00 226.90 4.00L226.90 4.00L226.90 4.00Q226.38 4.00 226.27 4.28L226.27 4.28L226.27 4.28Q226.16 4.55 226.16 5.54L226.16 5.54ZM240.67 3.65L240.67 3.65L240.67 3.65Q240.67 3.46 241.07 3.46L241.07 3.46L241.07 3.46Q241.12 3.46 241.25 3.47L241.25 3.47L241.25 3.47Q241.37 3.49 241.44 3.49L241.44 3.49L241.44 3.49Q241.49 3.49 242.76 3.52L242.76 3.52L242.76 3.52Q244.03 3.56 244.86 3.56L244.86 3.56L244.86 3.56Q245.15 3.56 246.31 3.53L246.31 3.53L246.31 3.53Q247.46 3.50 247.66 3.50L247.66 3.50L247.66 3.50Q247.93 3.50 247.93 3.82L247.93 3.82L247.93 3.82Q247.93 3.91 247.84 4.38L247.84 4.38L247.84 4.38Q247.76 4.84 247.76 5.25L247.76 5.25L247.76 5.25Q247.76 5.38 247.69 5.47L247.69 5.47L247.69 5.47Q247.62 5.56 247.53 5.56L247.53 5.56L247.53 5.56Q247.32 5.56 247.32 5.26L247.32 5.26L247.32 5.26Q247.32 4.89 247.09 4.58L247.09 4.58L247.09 4.58Q246.85 4.27 246.50 4.26L246.50 4.26L246.50 4.26Q245.24 4.16 244.57 4.16L244.57 4.16L244.20 4.16L244.20 4.16Q243.47 4.16 243.36 4.26L243.36 4.26L243.36 4.26Q243.24 4.37 243.21 5.01L243.21 5.01L243.21 5.01Q243.15 6.02 243.15 7.35L243.15 7.35L243.15 7.35Q243.15 8.05 243.42 8.06L243.42 8.06L243.77 8.06L244.36 8.06L244.79 8.06L244.79 8.06Q245.63 8.06 245.91 8.01L245.91 8.01L245.91 8.01Q246.19 7.95 246.41 7.80L246.41 7.80L246.41 7.80Q246.68 7.62 246.74 7.28L246.74 7.28L246.74 7.28Q246.78 7.04 246.93 7.04L246.93 7.04L246.93 7.04Q247.06 7.04 247.09 7.08L247.09 7.08L247.09 7.08Q247.11 7.13 247.11 7.27L247.11 7.27L247.11 7.27Q247.11 7.36 247.06 7.91L247.06 7.91L247.06 7.91Q247.00 8.46 247.00 8.74L247.00 8.74L247.00 8.74Q247.00 9.00 247.02 9.24L247.02 9.24L247.02 9.24Q247.04 9.48 247.04 9.59L247.04 9.59L247.04 9.59Q247.04 9.94 246.95 9.94L246.95 9.94L246.95 9.94Q246.74 9.94 246.64 9.60L246.64 9.60L246.64 9.60Q246.44 9.02 246.29 8.92L246.29 8.92L246.29 8.92Q245.99 8.72 244.94 8.72L244.94 8.72L244.94 8.72Q244.52 8.72 244.27 8.72L244.27 8.72L244.27 8.72Q244.01 8.72 243.93 8.71L243.93 8.71L243.93 8.71Q243.85 8.71 243.80 8.71L243.80 8.71L243.80 8.71Q243.75 8.71 243.71 8.71L243.71 8.71L243.71 8.71Q243.14 8.71 243.14 8.97L243.14 8.97L243.14 8.97Q243.14 9.38 243.12 9.99L243.12 9.99L243.12 9.99Q243.11 10.60 243.11 10.99L243.11 10.99L243.11 11.55L243.11 11.55Q243.11 12.56 243.45 12.66L243.45 12.66L243.45 12.66Q243.80 12.77 244.05 12.77L244.05 12.77L244.05 12.77Q245.10 12.77 245.89 12.67L245.89 12.67L245.89 12.67Q246.68 12.57 247.08 12.42L247.08 12.42L247.08 12.42Q247.48 12.28 247.74 12.10L247.74 12.10L247.74 12.10Q248.01 11.93 248.09 11.78L248.09 11.78L248.09 11.78Q248.16 11.63 248.24 11.54L248.24 11.54L248.24 11.54Q248.32 11.44 248.40 11.44L248.40 11.44L248.40 11.44Q248.57 11.44 248.57 11.68L248.57 11.68L248.57 11.68Q248.57 12.28 247.97 12.89L247.97 12.89L247.97 12.89Q247.37 13.51 246.92 13.51L246.92 13.51L246.92 13.51Q245.91 13.51 244.64 13.44L244.64 13.44L244.64 13.44Q243.38 13.37 243.07 13.37L243.07 13.37L243.07 13.37Q242.68 13.37 242.09 13.43L242.09 13.43L242.09 13.43Q241.50 13.50 241.16 13.50L241.16 13.50L241.16 13.50Q240.87 13.50 240.87 13.36L240.87 13.36L240.87 13.36Q240.87 13.23 240.87 13.19L240.87 13.19L240.87 13.19Q240.87 13.15 240.91 13.12L240.91 13.12L240.91 13.12Q240.95 13.09 241.00 13.08L241.00 13.08L241.00 13.08Q241.05 13.08 241.19 13.03L241.19 13.03L241.19 13.03Q241.32 12.99 241.47 12.92L241.47 12.92L241.47 12.92Q241.81 12.75 241.91 12.26L241.91 12.26L241.91 12.26Q242.02 11.77 242.02 10.21L242.02 10.21L242.02 8.47L242.02 8.47Q242.02 8.09 242.04 7.29L242.04 7.29L242.04 7.29Q242.06 6.50 242.06 6.05L242.06 6.05L242.06 6.05Q242.06 5.67 242.03 4.77L242.03 4.77L242.03 4.77Q242.02 4.37 241.68 4.14L241.68 4.14L241.68 4.14Q241.35 3.92 240.90 3.91L240.90 3.91L240.90 3.91Q240.67 3.91 240.67 3.65Z"></path></g></svg>